<svg width="114" height="107" viewBox="0 0 114 107" fill="none" xmlns="http://www.w3.org/2000/svg">
<path fill-rule="evenodd" clip-rule="evenodd" d="M72.836 0.505764C73.2366 0.265683 73.6806 0.106876 74.1426 0.0384119C74.6046 -0.0300518 75.0755 -0.00683016 75.5285 0.106751C75.9815 0.220333 76.4077 0.422049 76.7827 0.700377C77.1578 0.978704 77.4743 1.32819 77.7142 1.72887L99.0475 37.2843C99.2875 37.6849 99.4462 38.1288 99.5146 38.5908C99.5831 39.0528 99.5598 39.5237 99.4462 39.9767C99.3327 40.4297 99.131 40.8558 98.8527 41.2309C98.5744 41.6059 98.225 41.9225 97.8244 42.1625C97.0153 42.6472 96.0468 42.7906 95.132 42.5612C94.2171 42.3318 93.4309 41.7484 92.9462 40.9394L71.6129 5.38396C71.3729 4.98337 71.214 4.5394 71.1456 4.07742C71.0771 3.61544 71.1003 3.14449 71.2139 2.69149C71.3275 2.23848 71.5292 1.81229 71.8075 1.43726C72.0859 1.06223 72.4354 0.745701 72.836 0.505764V0.505764ZM40.9357 0.505764C40.5351 0.265683 40.0912 0.106876 39.6292 0.0384119C39.1672 -0.0300518 38.6963 -0.00683016 38.2433 0.106751C37.7902 0.220333 37.3641 0.422049 36.989 0.700377C36.614 0.978704 36.2975 1.32819 36.0575 1.72887L14.7243 37.2843C14.2396 38.0933 14.0962 39.0618 14.3255 39.9767C14.5549 40.8915 15.1383 41.6778 15.9474 42.1625C16.348 42.4025 16.792 42.5612 17.2539 42.6296C17.7159 42.698 18.1868 42.6748 18.6398 42.5612C19.5546 42.3318 20.3409 41.7484 20.8256 40.9394L42.1588 5.38396C42.3989 4.98337 42.5577 4.5394 42.6262 4.07742C42.6947 3.61544 42.6714 3.14449 42.5578 2.69149C42.4443 2.23848 42.2426 1.81229 41.9642 1.43726C41.6859 1.06223 41.3364 0.745701 40.9357 0.505764V0.505764Z" fill="#C79B6B"/>
<path fill-rule="evenodd" clip-rule="evenodd" d="M7.11108 42.6665V49.7776H106.666V42.6665H7.11108ZM3.55554 35.5554C2.61255 35.5554 1.70819 35.93 1.04139 36.5968C0.3746 37.2636 0 38.168 0 39.111L0 53.3331C0 54.2761 0.3746 55.1805 1.04139 55.8473C1.70819 56.5141 2.61255 56.8886 3.55554 56.8886H110.222C111.165 56.8886 112.069 56.5141 112.736 55.8473C113.403 55.1805 113.777 54.2761 113.777 53.3331V39.111C113.777 38.168 113.403 37.2636 112.736 36.5968C112.069 35.93 111.165 35.5554 110.222 35.5554H3.55554Z" fill="#C79B6B"/>
<path fill-rule="evenodd" clip-rule="evenodd" d="M99.5534 56.8889H14.2205V92.4443C14.2205 94.3303 14.9697 96.139 16.3032 97.4726C17.6368 98.8062 19.4456 99.5554 21.3315 99.5554H92.4423C94.3283 99.5554 96.137 98.8062 97.4706 97.4726C98.8042 96.139 99.5534 94.3303 99.5534 92.4443V56.8889ZM14.2205 49.7778C12.3345 49.7778 10.5257 50.527 9.19216 51.8606C7.85858 53.1942 7.10938 55.0029 7.10938 56.8889V92.4443C7.10938 96.2163 8.60778 99.8337 11.2749 102.501C13.9421 105.168 17.5596 106.666 21.3315 106.666H92.4423C96.2143 106.666 99.8317 105.168 102.499 102.501C105.166 99.8337 106.664 96.2163 106.664 92.4443V56.8889C106.664 55.0029 105.915 53.1942 104.582 51.8606C103.248 50.527 101.439 49.7778 99.5534 49.7778H14.2205Z" fill="#C79B6B"/>
<path fill-rule="evenodd" clip-rule="evenodd" d="M28.4579 63.999C29.4009 63.999 30.3052 64.3736 30.972 65.0404C31.6388 65.7072 32.0134 66.6116 32.0134 67.5546V88.8878C32.0134 89.8308 31.6388 90.7352 30.972 91.402C30.3052 92.0687 29.4009 92.4433 28.4579 92.4433C27.5149 92.4433 26.6105 92.0687 25.9437 91.402C25.2769 90.7352 24.9023 89.8308 24.9023 88.8878V67.5546C24.9023 66.6116 25.2769 65.7072 25.9437 65.0404C26.6105 64.3736 27.5149 63.999 28.4579 63.999ZM42.68 63.999C43.623 63.999 44.5274 64.3736 45.1942 65.0404C45.861 65.7072 46.2356 66.6116 46.2356 67.5546V88.8878C46.2356 89.8308 45.861 90.7352 45.1942 91.402C44.5274 92.0687 43.623 92.4433 42.68 92.4433C41.7371 92.4433 40.8327 92.0687 40.1659 91.402C39.4991 90.7352 39.1245 89.8308 39.1245 88.8878V67.5546C39.1245 66.6116 39.4991 65.7072 40.1659 65.0404C40.8327 64.3736 41.7371 63.999 42.68 63.999V63.999ZM56.9022 63.999C57.8452 63.999 58.7496 64.3736 59.4163 65.0404C60.0831 65.7072 60.4577 66.6116 60.4577 67.5546V88.8878C60.4577 89.8308 60.0831 90.7352 59.4163 91.402C58.7496 92.0687 57.8452 92.4433 56.9022 92.4433C55.9592 92.4433 55.0548 92.0687 54.3881 91.402C53.7213 90.7352 53.3467 89.8308 53.3467 88.8878V67.5546C53.3467 66.6116 53.7213 65.7072 54.3881 65.0404C55.0548 64.3736 55.9592 63.999 56.9022 63.999V63.999ZM71.1244 63.999C72.0673 63.999 72.9717 64.3736 73.6385 65.0404C74.3053 65.7072 74.6799 66.6116 74.6799 67.5546V88.8878C74.6799 89.8308 74.3053 90.7352 73.6385 91.402C72.9717 92.0687 72.0673 92.4433 71.1244 92.4433C70.1814 92.4433 69.277 92.0687 68.6102 91.402C67.9434 90.7352 67.5688 89.8308 67.5688 88.8878V67.5546C67.5688 66.6116 67.9434 65.7072 68.6102 65.0404C69.277 64.3736 70.1814 63.999 71.1244 63.999ZM85.3465 63.999C86.2895 63.999 87.1939 64.3736 87.8607 65.0404C88.5275 65.7072 88.902 66.6116 88.902 67.5546V88.8878C88.902 89.8308 88.5275 90.7352 87.8607 91.402C87.1939 92.0687 86.2895 92.4433 85.3465 92.4433C84.4035 92.4433 83.4992 92.0687 82.8324 91.402C82.1656 90.7352 81.791 89.8308 81.791 88.8878V67.5546C81.791 66.6116 82.1656 65.7072 82.8324 65.0404C83.4992 64.3736 84.4035 63.999 85.3465 63.999Z" fill="#C79B6B"/>
</svg>
