<svg width="333" height="306" xmlns="http://www.w3.org/2000/svg" xmlns:xlink="http://www.w3.org/1999/xlink"><defs><path id="a" d="M.06.165h332.131V182.94H.06z"/><path id="c" d="M.906 0h53.283v23.94H.906z"/></defs><g fill="none" fill-rule="evenodd"><path fill="#FFFFFE" d="M87.672 19.497V3.29"/><path fill="#4D4E4C" d="M87.214 19.496h.916V3.29h-.916z"/><path fill="#FFFFFE" d="M96.722 5.407h-9.05v5.371h11.311l-2.261-5.371"/><path d="M88.13 10.32h10.163l-1.876-4.455H88.13v4.455zm11.543.916H87.214V4.949h9.812l2.647 6.287z" fill="#4D4E4C"/><path fill="#FFFFFE" d="M244.519 69.806V53.599"/><path fill="#4D4E4C" d="M244.061 69.805h.917V53.599h-.917z"/><path fill="#FFFFFE" d="M253.572 55.712h-9.053v5.376h11.308l-2.255-5.376"/><path d="M244.978 60.63h10.16l-1.87-4.459h-8.29v4.459zm11.539.916h-12.456v-6.292h9.816l2.64 6.292z" fill="#4D4E4C"/><path fill="#FFFFFE" d="M190.105 14.987V.423"/><path fill="#4D4E4C" d="M189.646 14.986h.917V.423h-.917z"/><path fill="#FFFFFE" d="M198.242 2.321h-8.137V7.15h10.165l-2.028-4.829"/><path d="M190.563 6.691h9.017l-1.642-3.912h-7.375v3.912zm10.395.917h-11.312V1.862h8.901l2.411 5.746z" fill="#4D4E4C"/><path fill="#FFFFFE" d="M233.162 32.434V22.221"/><path fill="#4D4E4C" d="M232.704 32.434h.917V22.221h-.917z"/><path fill="#FFFFFE" d="M238.869 23.554h-5.707v3.384h7.13l-1.423-3.384"/><path d="M233.621 26.48h5.981l-1.037-2.468h-4.944v2.468zm7.361.917h-8.278v-4.302h6.469l1.809 4.302z" fill="#4D4E4C"/><path fill="#FFFFFE" d="M128.718 53.246v-9.215"/><path fill="#4D4E4C" d="M128.26 53.247h.916v-9.215h-.916z"/><path fill="#FFFFFE" d="M133.864 45.234h-5.146v3.054h6.43l-1.284-3.054"/><path d="M129.176 47.83h5.282l-.899-2.137h-4.383v2.137zm6.662.916h-7.578v-3.97h5.908l1.67 3.97z" fill="#4D4E4C"/><path fill="#FFFFFE" d="M237.409 55.587h-1.264v-1.844h-1.648v1.844h-2.663v-1.844h-1.647v1.844h-1.263v8.971l8.485 10.859v-19.83"/><path d="M229.382 64.4l7.569 9.686V56.045h-1.264v-1.843h-.732v1.843h-3.579v-1.843h-.731v1.843h-1.263V64.4zm8.486 12.348l-9.402-12.032v-9.587h1.262v-1.844h2.564v1.844h1.747v-1.844h2.565v1.844h1.264v21.619z" fill="#4D4E4C"/><path fill="#FFFFFE" d="M234.497 53.743h1.648v-3.068h-1.648z"/><path d="M234.955 53.285h.732v-2.152h-.732v2.152zm-.916.917h2.565v-3.985h-2.565v3.985z" fill="#4D4E4C"/><path fill="#FFFFFE" d="M230.187 53.743h1.647v-3.068h-1.647z"/><path d="M230.645 53.285h.731v-2.152h-.731v2.152zm-.917.917h2.564v-3.985h-2.564v3.985z" fill="#4D4E4C"/><path fill="#FFFFFE" d="M239.212 48.578h-12.097l-.86 2.097h13.819l-.862-2.097"/><path d="M226.938 50.217h12.453l-.485-1.182h-11.483l-.485 1.182zm13.82.917h-15.186l1.237-3.015h12.711l1.238 3.015z" fill="#4D4E4C"/><path d="M238.679 48.578c-3.746-6.28-4.953-15.486-4.953-15.486s-.128-.514-.564-.514c-.432 0-.559.514-.559.514s-1.207 9.206-4.952 15.486h11.028" fill="#FFFFFE"/><path d="M228.442 48.119h9.446c-3.363-6.096-4.517-14.228-4.611-14.931-.019-.053-.072-.152-.115-.152-.037 0-.088.091-.109.153-.096.708-1.25 8.837-4.611 14.93zm11.045.916h-12.643l.413-.692c3.654-6.127 4.88-15.22 4.892-15.311l.009-.05c.08-.321.38-.862 1.004-.862.627 0 .929.541 1.009.861l.009.051c.013.091 1.239 9.188 4.892 15.311l.415.692z" fill="#4D4E4C"/><path fill="#FFFFFE" d="M228.924 50.675h-1.395v4.912h2.658v-4.912h-1.263"/><path d="M227.988 55.129h1.74v-3.995h-1.74v3.995zm-.917.916h3.574v-5.828h-3.574v5.828z" fill="#4D4E4C"/><path fill="#FFFFFE" d="M231.834 55.587h2.663v-4.912h-2.663z"/><path d="M232.292 55.129h1.747v-3.995h-1.747v3.995zm-.916.916h3.579v-5.828h-3.579v5.828z" fill="#4D4E4C"/><path fill="#FFFFFE" d="M237.409 50.675h-1.264v4.912h2.655v-4.912h-1.391"/><path d="M236.604 55.129h1.738v-3.995h-1.738v3.995zm-.917.916h3.571v-5.828h-3.571v5.828z" fill="#4D4E4C"/><path fill="#FFFFFE" d="M179.138 87.819h10.965v-6.887h2.802l9.409-12.036v-2.184h-2.12v4.384h-3.412v-4.384h-2.121v4.384h-3.412v-4.384h-2.117v4.384h-3.415v-4.384h-2.12v4.384h-3.416v-4.384h-2.115v4.384h-1.607v12.931h2.679v3.792"/><path d="M200.652 67.17v3.107l1.204-1.539V67.17h-1.204zm-21.055 20.19h10.047v-6.886h3.037l6.973-8.919h-3.33V67.17h-1.205v4.385h-4.328V67.17h-1.201v4.385h-4.331V67.17h-1.204v4.385h-4.333V67.17h-1.198v4.385h-1.606v12.013h2.679v3.792zm10.964.917H178.68v-3.792h-2.679V70.638h1.607v-4.384h3.031v4.384h2.5v-4.384h3.036v4.384h2.499v-4.384h3.034v4.384h2.494v-4.384h3.038v4.384h2.496v-4.384h3.036v2.8l-9.645 12.337h-2.566v6.886z" fill="#4D4E4C"/><path fill="#FFFFFE" d="M178.066 66.712h2.115v-5.699h-2.115z"/><path d="M178.524 66.254h1.198v-4.783h-1.198v4.783zm-.916.917h3.031v-6.616h-3.031v6.616z" fill="#4D4E4C"/><path fill="#FFFFFE" d="M183.597 66.712h2.12v-5.699h-2.12z"/><path d="M184.055 66.254h1.204v-4.783h-1.204v4.783zm-.916.917h3.036v-6.616h-3.036v6.616z" fill="#4D4E4C"/><path fill="#FFFFFE" d="M200.194 66.712h2.12v-5.699h-2.12z"/><path d="M200.652 66.254h1.204v-4.783h-1.204v4.783zm-.916.917h3.036v-6.616h-3.036v6.616z" fill="#4D4E4C"/><path fill="#FFFFFE" d="M194.661 66.712h2.121v-5.699h-2.121z"/><path d="M195.119 66.254h1.205v-4.783h-1.205v4.783zm-.917.917h3.038v-6.616h-3.038v6.616z" fill="#4D4E4C"/><path fill="#FFFFFE" d="M189.132 66.712h2.117v-5.699h-2.117z"/><path d="M189.59 66.254h1.201v-4.783h-1.201v4.783zm-.916.917h3.034v-6.616h-3.034v6.616z" fill="#4D4E4C"/><path fill="#FFFFFE" d="M176.459 61.013h-1.804v10.083h3.411V61.013h-1.607"/><path d="M175.114 70.638h2.494v-9.167h-2.494v9.167zm-.917.917h4.327v-11h-4.327v11z" fill="#4D4E4C"/><path fill="#FFFFFE" d="M180.181 71.096h3.416V61.012h-3.416z"/><path d="M180.639 70.638h2.5v-9.167h-2.5v9.167zm-.917.917h4.333v-11h-4.333v11z" fill="#4D4E4C"/><path fill="#FFFFFE" d="M185.717 71.096h3.415V61.012h-3.415z"/><path d="M186.175 70.638h2.499v-9.167h-2.499v9.167zm-.916.917h4.331v-11h-4.331v11z" fill="#4D4E4C"/><path fill="#FFFFFE" d="M191.249 71.096h3.412V61.012h-3.412z"/><path d="M191.708 70.638h2.494v-9.167h-2.494v9.167zm-.917.917h4.328v-11h-4.328v11z" fill="#4D4E4C"/><path fill="#FFFFFE" d="M196.782 71.096h3.412V61.012h-3.412z"/><path d="M197.24 70.638h2.496v-9.167h-2.496v9.167zm-.916.917h4.328v-11h-4.328v11z" fill="#4D4E4C"/><path fill="#FFFFFE" d="M203.954 61.013h-1.64v7.883l1.64-2.098 1.773-2.271v-3.514h-1.773"/><path d="M202.772 61.471v6.095l2.496-3.197v-2.898h-2.496zm-.916 8.755v-9.671h4.329v4.129l-4.329 5.542z" fill="#4D4E4C"/><path fill="#FFFFFE" d="M205.538 55.696h-30.664l-2.184 5.317h35.033l-2.185-5.317"/><path d="M173.374 60.555h33.665l-1.808-4.401h-30.05l-1.807 4.401zm35.032.916h-36.4l2.561-6.234h31.278l2.561 6.234z" fill="#4D4E4C"/><path d="M204.188 55.696c-9.491-15.926-12.556-39.259-12.556-39.259s-.324-1.307-1.428-1.307c-1.099 0-1.423 1.307-1.423 1.307s-3.064 23.333-12.556 39.259h27.963" fill="#FFFFFE"/><path d="M177.025 55.237h26.364c-8.96-15.535-12.074-37.738-12.207-38.709-.04-.14-.301-.94-.978-.94-.671 0-.93.796-.972.941-.133.973-3.248 23.174-12.207 38.708zm27.969.917h-29.576l.412-.693c9.337-15.664 12.467-38.851 12.497-39.083l.01-.051c.016-.067.426-1.655 1.867-1.655 1.446 0 1.856 1.587 1.873 1.655l.009.051c.031.232 3.163 23.424 12.496 39.083l.412.693z" fill="#4D4E4C"/><path fill="#FFFFFE" d="M71.681 180.692h12.524v-42.63H71.681z"/><path d="M72.139 180.233h11.608V138.52H72.139v41.713zm-.916.917h13.441v-43.546H71.223v43.546z" fill="#4D4E4C"/><path fill="#FFFFFE" d="M69.782 138.062h14.423v-6.571H69.782z"/><path d="M70.24 137.604h13.507v-5.655H70.24v5.655zm-.917.916h15.34v-7.487h-15.34v7.487z" fill="#4D4E4C"/><path fill="#FFFFFE" d="M84.205 123.624h-1.367V108.1h23.605V96.065h-2.24v-5.986h-2.892v5.986h-4.664v-5.986h-2.889v5.986h-4.662v-5.986H86.2v5.986h-4.659v-5.986h-2.893v5.986h-4.663v-5.986h-2.894v5.986h-2.194v35.426h15.308v-7.867"/><path d="M69.355 131.033h14.392v-6.951H82.38v-16.44h23.605V96.523h-2.24v-5.985h-1.976v5.985h-5.58v-5.985h-1.973v5.985h-5.579v-5.985h-1.979v5.985h-5.575v-5.985h-1.976v5.985h-5.58v-5.985h-1.978v5.985h-2.194v34.51zm15.309.916H68.438V95.607h2.195v-5.986h3.81v5.986h3.747v-5.986h3.809v5.986h3.742v-5.986h3.813v5.986H93.3v-5.986h3.806v5.986h3.746v-5.986h3.809v5.986h2.241v12.951H83.297v14.607h1.367v8.784z" fill="#4D4E4C"/><path fill="#FFFFFE" d="M78.648 90.079h2.893v-7.783h-2.893z"/><path d="M79.107 89.621h1.976v-6.866h-1.976v6.866zm-.917.916h3.809v-8.699H78.19v8.699z" fill="#4D4E4C"/><path fill="#FFFFFE" d="M93.758 90.079h2.889v-7.783h-2.889z"/><path d="M94.216 89.621h1.972v-6.866h-1.972v6.866zm-.916.916h3.806v-8.699H93.3v8.699z" fill="#4D4E4C"/><path fill="#FFFFFE" d="M86.2 90.079h2.896v-7.783H86.2z"/><path d="M86.658 89.621h1.979v-6.866h-1.979v6.866zm-.917.916h3.813v-8.699h-3.813v8.699z" fill="#4D4E4C"/><path fill="#FFFFFE" d="M71.091 90.079h2.893v-7.783h-2.893z"/><path d="M71.549 89.621h1.978v-6.866h-1.978v6.866zm-.916.916h3.811v-8.699h-3.811v8.699z" fill="#4D4E4C"/><path fill="#FFFFFE" d="M101.311 90.079h2.892v-7.783h-2.892z"/><path d="M101.769 89.621h1.976v-6.866h-1.976v6.866zm-.917.916h3.809v-8.699h-3.809v8.699z" fill="#4D4E4C"/><path fill="#FFFFFE" d="M68.897 82.296h-2.466v13.769h4.66V82.296h-2.194"/><path d="M66.889 95.607h3.743V82.755h-3.743v12.852zm-.916.916h5.576V81.838h-5.576v14.685z" fill="#4D4E4C"/><path fill="#FFFFFE" d="M73.985 96.065h4.664V82.296h-4.664z"/><path d="M74.443 95.607h3.747V82.755h-3.747v12.852zm-.916.916h5.58V81.838h-5.58v14.685z" fill="#4D4E4C"/><path fill="#FFFFFE" d="M81.541 96.065H86.2V82.296h-4.659z"/><path d="M81.999 95.607h3.742V82.755h-3.742v12.852zm-.916.916h5.575V81.838h-5.575v14.685z" fill="#4D4E4C"/><path fill="#FFFFFE" d="M89.096 96.065h4.662V82.296h-4.662z"/><path d="M89.554 95.607H93.3V82.755h-3.746v12.852zm-.917.916h5.579V81.838h-5.579v14.685z" fill="#4D4E4C"/><path fill="#FFFFFE" d="M96.647 96.065h4.664V82.296h-4.664z"/><path d="M97.106 95.607h3.746V82.755h-3.746v12.852zm-.917.916h5.58V81.838h-5.58v14.685z" fill="#4D4E4C"/><path fill="#FFFFFE" d="M106.443 82.296h-2.24v13.769h4.662V82.296h-2.422"/><path d="M104.661 95.607h3.746V82.755h-3.746v12.852zm-.916.916h5.579V81.838h-5.579v14.685z" fill="#4D4E4C"/><path fill="#FFFFFE" d="M108.606 75.034H66.735l-2.986 7.262h47.841l-2.984-7.262"/><path d="M64.433 81.838h46.473l-2.607-6.346H67.042l-2.609 6.346zm47.84.917H63.065l3.363-8.179h42.485l3.36 8.179z" fill="#4D4E4C"/><path fill="#FFFFFE" d="M106.443 108.1H82.838v15.524h41.203V108.1h-17.598"/><path d="M83.297 123.165h40.285v-14.607H83.297v14.607zm-.917.917h42.119v-16.44H82.38v16.44z" fill="#4D4E4C"/><path d="M181.824 129.422h-13.472v-18.097c0-3.28 3.016-5.937 6.737-5.937 3.719 0 6.735 2.657 6.735 5.937v18.097zm-18.014 0h-13.472v-18.097c0-3.28 3.015-5.937 6.734-5.937 3.721 0 6.738 2.657 6.738 5.937v18.097zm-18.019 0h-13.469v-18.097c0-3.28 3.017-5.937 6.733-5.937 3.718 0 6.736 2.657 6.736 5.937v18.097zm33.347-34.721v6.616h-4.473v.001h-35.186v-.001h-4.475v-6.616h-10.963v48.338h11.308l21.723-11.127 21.718 11.127h11.313V94.701h-10.965z" fill="#FFFFFE"/><path d="M132.78 128.964h12.552v-17.639c0-3.021-2.815-5.479-6.277-5.479-3.46 0-6.275 2.458-6.275 5.479v17.639zm13.469.916h-14.385v-18.555c0-3.527 3.226-6.395 7.191-6.395 3.967 0 7.194 2.868 7.194 6.395v18.555zm4.547-.916h12.556v-17.639c0-3.021-2.818-5.479-6.28-5.479-3.461 0-6.276 2.458-6.276 5.479v17.639zm13.472.916H149.88v-18.555c0-3.527 3.226-6.395 7.192-6.395 3.967 0 7.196 2.868 7.196 6.395v18.555zm4.543-.916h12.555v-17.639c0-3.021-2.815-5.479-6.277-5.479s-6.278 2.458-6.278 5.479v17.639zm13.472.916h-14.389v-18.555c0-3.527 3.227-6.395 7.195-6.395 3.967 0 7.194 2.868 7.194 6.395v18.555zm-3.382 12.701h10.743V95.159h-10.047v6.616h-45.051v-6.616h-10.047v47.422h10.74l21.833-11.184.209.107 21.62 11.077zm11.66.917H178.68l-.099-.051-21.509-11.02-21.612 11.071h-11.878V94.242h11.88v6.617h43.218v-6.617h11.881v49.256z" fill="#4D4E4C"/><path fill="#FFFFFE" d="M132.963 88.987v2.271h-8.489v-3.439h-2.414v6.882h12.944v-6.882h-2.041v1.168"/><path d="M122.519 94.242h12.027v-5.965h-1.125v3.439h-9.405v-3.439h-1.497v5.965zm12.943.917h-13.86V87.36h3.331v3.44h7.572v-3.44h2.957v7.799z" fill="#4D4E4C"/><path fill="#FFFFFE" d="M179.138 94.701h10.965v-6.882h-10.965z"/><path d="M179.597 94.242h10.047v-5.965h-10.047v5.965zm-.917.916h11.881V87.36H178.68v7.798z" fill="#4D4E4C"/><path d="M176.459 84.027h-3.868c-1.571-5.552-7.927-9.706-15.516-9.706-7.598 0-13.945 4.154-15.521 9.706h-6.55v17.29h4.475V87.532h5.218c1.257-4.425 6.32-7.738 12.378-7.738 6.056 0 11.114 3.313 12.371 7.738h5.219v13.785h4.473v-17.29h-2.679" fill="#FFFFFE"/><path d="M175.123 100.859h3.557V84.485h-6.436l-.093-.334c-1.537-5.43-7.877-9.372-15.076-9.372-7.197 0-13.539 3.942-15.08 9.373l-.094.333h-6.439v16.374h3.558V87.074h5.338c1.497-4.573 6.665-7.738 12.717-7.738 6.048 0 11.213 3.165 12.71 7.738h5.338v13.785zm4.474.916h-5.39V87.99H169.1l-.095-.333c-1.219-4.29-6.235-7.405-11.93-7.405-5.698 0-10.719 3.115-11.937 7.405l-.095.333h-5.106v13.785h-5.391V83.568h6.668c1.826-5.732 8.287-9.706 15.861-9.706 7.454 0 14.052 4.062 15.857 9.706h6.665v18.207z" fill="#4D4E4C"/><path d="M169.446 87.532c-1.257-4.425-6.315-7.738-12.371-7.738-6.058 0-11.121 3.313-12.378 7.738h-5.218v13.785h35.186V87.532h-5.219" fill="#FFFFFE"/><path d="M139.937 100.859h34.27V87.99H169.1l-.095-.333c-1.219-4.29-6.235-7.405-11.93-7.405-5.698 0-10.719 3.115-11.937 7.405l-.095.333h-5.106v12.869zm35.186.916H139.02V87.074h5.338c1.497-4.574 6.665-7.738 12.717-7.738 6.048 0 11.213 3.164 12.71 7.738h5.338v14.701z" fill="#4D4E4C"/><path d="M145.791 111.325c0-3.28-3.018-5.937-6.736-5.937-3.716 0-6.733 2.657-6.733 5.937v18.097h13.469v-18.097" fill="#FFFFFE"/><path d="M132.78 128.964h12.552v-17.639c0-3.021-2.815-5.479-6.277-5.479-3.46 0-6.275 2.458-6.275 5.479v17.639zm13.469.916h-14.385v-18.555c0-3.527 3.226-6.395 7.191-6.395 3.967 0 7.194 2.868 7.194 6.395v18.555z" fill="#4D4E4C"/><path d="M163.81 111.325c0-3.28-3.017-5.937-6.738-5.937-3.719 0-6.734 2.657-6.734 5.937v18.097h13.472v-18.097" fill="#FFFFFE"/><path d="M150.796 128.964h12.556v-17.639c0-3.021-2.818-5.479-6.28-5.479-3.461 0-6.276 2.458-6.276 5.479v17.639zm13.472.916H149.88v-18.555c0-3.527 3.226-6.395 7.192-6.395 3.967 0 7.196 2.868 7.196 6.395v18.555z" fill="#4D4E4C"/><path d="M181.824 111.325c0-3.28-3.016-5.937-6.735-5.937-3.721 0-6.737 2.657-6.737 5.937v18.097h13.472v-18.097" fill="#FFFFFE"/><path d="M168.811 128.964h12.555v-17.639c0-3.021-2.815-5.479-6.277-5.479s-6.278 2.458-6.278 5.479v17.639zm13.472.916h-14.389v-18.555c0-3.527 3.227-6.395 7.195-6.395 3.967 0 7.194 2.868 7.194 6.395v18.555z" fill="#4D4E4C"/><path d="M92.396 131.518c-1.787 0-3.237 1.932-3.237 4.312v13.152h6.471V135.83c0-2.38-1.452-4.312-3.234-4.312" fill="#FFFFFE"/><path d="M89.617 148.524h5.555v-12.693c0-2.126-1.246-3.854-2.776-3.854-1.533 0-2.779 1.728-2.779 3.854v12.693zm6.472.916H88.7v-13.609c0-2.631 1.658-4.771 3.696-4.771 2.036 0 3.693 2.14 3.693 4.771v13.609z" fill="#4D4E4C"/><path d="M100.025 131.518c-1.79 0-3.236 1.932-3.236 4.312v13.152h6.471V135.83c0-2.38-1.452-4.312-3.235-4.312" fill="#FFFFFE"/><path d="M97.247 148.524h5.555v-12.693c0-2.126-1.246-3.854-2.777-3.854-1.532 0-2.778 1.728-2.778 3.854v12.693zm6.471.916h-7.387v-13.609c0-2.631 1.656-4.771 3.694-4.771 2.036 0 3.693 2.14 3.693 4.771v13.609z" fill="#4D4E4C"/><path d="M109.341 131.518c-1.789 0-3.241 1.932-3.241 4.312v13.152h6.475V135.83c0-2.38-1.448-4.312-3.234-4.312" fill="#FFFFFE"/><path d="M106.558 148.524h5.559v-12.693c0-2.126-1.246-3.854-2.776-3.854-1.535 0-2.783 1.728-2.783 3.854v12.693zm6.475.916h-7.391v-13.609c0-2.631 1.659-4.771 3.699-4.771 2.036 0 3.692 2.14 3.692 4.771v13.609z" fill="#4D4E4C"/><path d="M116.968 131.518c-1.788 0-3.237 1.932-3.237 4.312v13.152h6.475V135.83c0-2.38-1.452-4.312-3.238-4.312" fill="#FFFFFE"/><path d="M114.189 148.524h5.558v-12.693c0-2.126-1.246-3.854-2.779-3.854-1.532 0-2.779 1.728-2.779 3.854v12.693zm6.475.916h-7.392v-13.609c0-2.631 1.658-4.771 3.696-4.771 2.038 0 3.696 2.14 3.696 4.771v13.609z" fill="#4D4E4C"/><path d="M95.979 153.068a6.82 6.82 0 00-6.82 6.822v20.802h13.643V159.89a6.822 6.822 0 00-6.823-6.822" fill="#FFFFFE"/><path d="M89.617 180.233h12.727V159.89a6.372 6.372 0 00-6.365-6.364 6.37 6.37 0 00-6.362 6.364v20.343zm13.643.917H88.7v-21.26c0-4.015 3.266-7.281 7.279-7.281 4.015 0 7.281 3.266 7.281 7.281v21.26z" fill="#4D4E4C"/><path d="M106.761 75.034c-12.96-21.746-17.147-53.609-17.147-53.609s-.439-1.782-1.942-1.782c-1.504 0-1.945 1.782-1.945 1.782s-4.186 31.863-17.149 53.609h38.183" fill="#FFFFFE"/><path d="M69.38 74.576h36.58C93.586 53.309 89.318 22.647 89.164 21.515c-.049-.181-.432-1.414-1.492-1.414-1.058 0-1.445 1.24-1.495 1.414-.154 1.139-4.424 31.796-16.797 53.061zm38.188.916H67.771l.413-.692c12.765-21.413 17.047-53.117 17.089-53.434l.009-.051c.022-.087.549-2.131 2.39-2.131 1.84 0 2.366 2.044 2.388 2.132l.009.05c.042.317 4.324 32.021 17.086 53.434l.413.692z" fill="#4D4E4C"/><path d="M237.409 75.417l-20.096-25.715-11.586 14.825-1.773 2.271-11.049 14.134h-2.802v5.035h2.802l11.049-14.136.572-.735 1.201-1.535 11.586-14.825 11.611 14.854 7.088 9.075 4.288 5.485c.309-1.421.582-2.753.824-3.982l-3.715-4.751" fill="#FFFFFE"/><path d="M190.561 85.509h2.12l24.632-31.517 22.745 29.104c.195-.922.386-1.851.576-2.811l-23.321-29.84-24.186 30.946h-2.566v4.118zm2.566.916h-3.483v-5.951h3.037l24.632-31.517 24.301 31.094-.041.206c-.27 1.374-.541 2.679-.825 3.99l-.207.955-23.228-29.722-24.186 30.945z" fill="#4D4E4C"/><path d="M227.653 116.641h-7.229v-14.678c0-2.66 1.62-4.816 3.613-4.816 1.999 0 3.616 2.156 3.616 4.816v14.678zM208.499 84.2c0-4.863 3.947-8.812 8.814-8.812 4.866 0 8.809 3.949 8.809 8.812h-17.623zm5.698 32.441h-7.224v-14.678c0-2.66 1.617-4.816 3.613-4.816 1.993 0 3.611 2.156 3.611 4.816v14.678zm0 37.429h-7.224v-14.678c0-2.661 1.617-4.817 3.613-4.817 1.993 0 3.611 2.156 3.611 4.817v14.678zm-8.458-37.429h-7.229v-14.678c0-2.66 1.616-4.816 3.614-4.816 1.996 0 3.615 2.156 3.615 4.816v14.678zm0 37.429h-7.229v-14.678c0-2.661 1.616-4.817 3.614-4.817 1.996 0 3.615 2.156 3.615 4.817v14.678zm30.273-75.405l-7.088-9.075-11.611-14.854-11.586 14.825-1.201 1.535-.572.735-11.049 14.136h-2.802v94.725h35.67v-34.381h-2.491V132.54h-2.681l2.984-7.26h1.845c1.636-2.745 3.134-5.655 4.498-8.639h-1.04v-14.678c0-2.66 1.617-4.816 3.615-4.816 1.65 0 3.034 1.478 3.471 3.495 1.877-6.018 3.297-11.742 4.326-16.492l-4.288-5.485z" fill="#FFFFFE"/><path d="M208.97 83.742h16.682c-.239-4.394-3.888-7.896-8.339-7.896-4.454 0-8.105 3.502-8.343 7.896zm17.61.917h-18.54V84.2c0-5.111 4.16-9.27 9.273-9.27 5.11 0 9.267 4.159 9.267 9.27v.459zm-27.612 31.524h6.313v-14.22c0-2.403-1.417-4.358-3.157-4.358s-3.156 1.955-3.156 4.358v14.22zm7.229.916h-8.145v-15.136c0-2.908 1.827-5.274 4.072-5.274 2.246 0 4.073 2.366 4.073 5.274v15.136zm1.234-.916h6.308v-14.22c0-2.403-1.415-4.358-3.153-4.358-1.74 0-3.155 1.955-3.155 4.358v14.22zm7.224.916h-8.141v-15.136c0-2.908 1.827-5.274 4.072-5.274 2.243 0 4.069 2.366 4.069 5.274v15.136zm6.228-.916h6.312v-14.22c0-2.403-1.416-4.358-3.158-4.358-1.739 0-3.154 1.955-3.154 4.358v14.22zm7.228.916h-8.145v-15.136c0-2.908 1.826-5.274 4.071-5.274 2.246 0 4.074 2.366 4.074 5.274v15.136zm-29.143 36.513h6.313v-14.22c0-2.403-1.417-4.359-3.157-4.359s-3.156 1.956-3.156 4.359v14.22zm7.229.916h-8.145v-15.136c0-2.909 1.827-5.276 4.072-5.276 2.246 0 4.073 2.367 4.073 5.276v15.136zm1.234-.916h6.308v-14.22c0-2.403-1.415-4.359-3.153-4.359-1.74 0-3.155 1.956-3.155 4.359v14.22zm7.224.916h-8.141v-15.136c0-2.909 1.827-5.276 4.072-5.276 2.243 0 4.069 2.367 4.069 5.276v15.136zm-24.094 25.705h34.754v-33.464h-2.492v-13.771h-2.906l3.362-8.176h1.89a89.521 89.521 0 004.043-7.723h-.782v-15.136c0-2.908 1.827-5.274 4.073-5.274 1.419 0 2.713.968 3.446 2.475a194.405 194.405 0 003.858-14.901L217.313 55.48l-24.186 30.945h-2.566v93.808zm35.671.917h-36.588V85.509h3.037l24.632-31.517 23.48 30.045-.045.21a193.41 193.41 0 01-4.337 16.532l-.517 1.66-.368-1.699c-.399-1.846-1.642-3.135-3.023-3.135-1.741 0-3.157 1.955-3.157 4.358v14.22h1.296l-.297.649c-1.43 3.125-2.95 6.046-4.522 8.683l-.132.223h-1.798l-2.608 6.344h2.455v13.771h2.492v35.297z" fill="#4D4E4C"/><path d="M202.124 134.575c-1.998 0-3.614 2.156-3.614 4.817v14.678h7.229v-14.678c0-2.661-1.619-4.817-3.615-4.817" fill="#FFFFFE"/><path d="M198.968 153.612h6.313v-14.22c0-2.403-1.417-4.359-3.157-4.359s-3.156 1.956-3.156 4.359v14.22zm7.229.916h-8.145v-15.136c0-2.909 1.827-5.276 4.072-5.276 2.246 0 4.073 2.367 4.073 5.276v15.136z" fill="#4D4E4C"/><path d="M210.586 134.575c-1.996 0-3.613 2.156-3.613 4.817v14.678h7.224v-14.678c0-2.661-1.618-4.817-3.611-4.817" fill="#FFFFFE"/><path d="M207.431 153.612h6.308v-14.22c0-2.403-1.415-4.359-3.153-4.359-1.74 0-3.155 1.956-3.155 4.359v14.22zm7.224.916h-8.141v-15.136c0-2.909 1.827-5.276 4.072-5.276 2.243 0 4.069 2.367 4.069 5.276v15.136z" fill="#4D4E4C"/><path d="M202.124 97.147c-1.998 0-3.614 2.156-3.614 4.816v14.678h7.229v-14.678c0-2.66-1.619-4.816-3.615-4.816" fill="#FFFFFE"/><path d="M198.968 116.183h6.313v-14.22c0-2.403-1.417-4.358-3.157-4.358s-3.156 1.955-3.156 4.358v14.22zm7.229.916h-8.145v-15.136c0-2.908 1.827-5.274 4.072-5.274 2.246 0 4.073 2.366 4.073 5.274v15.136z" fill="#4D4E4C"/><path d="M210.586 97.147c-1.996 0-3.613 2.156-3.613 4.816v14.678h7.224v-14.678c0-2.66-1.618-4.816-3.611-4.816" fill="#FFFFFE"/><path d="M207.431 116.183h6.308v-14.22c0-2.403-1.415-4.358-3.153-4.358-1.74 0-3.155 1.955-3.155 4.358v14.22zm7.224.916h-8.141v-15.136c0-2.908 1.827-5.274 4.072-5.274 2.243 0 4.069 2.366 4.069 5.274v15.136z" fill="#4D4E4C"/><path d="M220.424 101.963v14.678h7.229v-14.678c0-2.66-1.617-4.816-3.616-4.816-1.993 0-3.613 2.156-3.613 4.816" fill="#FFFFFE"/><path d="M220.883 116.183h6.312v-14.22c0-2.403-1.416-4.358-3.158-4.358-1.739 0-3.154 1.955-3.154 4.358v14.22zm7.228.916h-8.145v-15.136c0-2.908 1.826-5.274 4.071-5.274 2.246 0 4.074 2.366 4.074 5.274v15.136z" fill="#4D4E4C"/><path d="M232.503 97.147c-1.998 0-3.615 2.156-3.615 4.816v14.678h1.04c2.404-5.249 4.4-10.736 6.046-15.999-.437-2.017-1.821-3.495-3.471-3.495" fill="#FFFFFE"/><path d="M229.346 116.183h.288c2.113-4.65 4.086-9.882 5.865-15.559-.425-1.784-1.644-3.019-2.996-3.019-1.741 0-3.157 1.955-3.157 4.358v14.22zm.876.916h-1.792v-15.136c0-2.908 1.827-5.274 4.073-5.274 1.817 0 3.428 1.586 3.919 3.856l.025.119-.036.116c-1.835 5.868-3.876 11.269-6.066 16.052l-.123.267z" fill="#4D4E4C"/><path fill="#FFFFFE" d="M131.696 76.402v-1.843h-1.651v1.843h-2.657v-1.843h-1.654v1.843h-1.26v14.856h8.489V76.402h-1.267"/><path d="M124.933 90.8h7.572V76.86h-1.267v-1.843h-.735v1.843h-3.573v-1.843h-.738v1.843h-1.259V90.8zm8.488.916h-9.405V75.944h1.26v-1.843h2.57v1.843h1.74v-1.843h2.568v1.843h1.267v15.772z" fill="#4D4E4C"/><path fill="#FFFFFE" d="M125.734 74.559h1.654V71.49h-1.654z"/><path d="M126.192 74.101h.738v-2.153h-.738v2.153zm-.916.917h2.57v-3.986h-2.57v3.986z" fill="#4D4E4C"/><path fill="#FFFFFE" d="M130.045 74.559h1.651V71.49h-1.651z"/><path d="M130.503 74.101h.735v-2.153h-.735v2.153zm-.917.917h2.568v-3.986h-2.568v3.986z" fill="#4D4E4C"/><path fill="#FFFFFE" d="M134.766 69.392H122.67l-.861 2.098h13.819l-.862-2.098"/><path d="M122.492 71.032h12.453l-.486-1.181h-11.482l-.485 1.181zm13.82.916h-15.186l1.237-3.014h12.71l1.239 3.014z" fill="#4D4E4C"/><path d="M134.235 69.392c-3.745-6.279-4.954-15.487-4.954-15.487s-.129-.514-.563-.514c-.434 0-.562.514-.562.514s-1.21 9.208-4.954 15.487h11.033" fill="#FFFFFE"/><path d="M123.992 68.934h9.452c-3.362-6.095-4.518-14.228-4.612-14.933-.019-.053-.072-.152-.114-.152-.042 0-.092.096-.113.154-.096.715-1.253 8.841-4.613 14.931zm11.049.917h-12.646l.413-.693c3.654-6.127 4.882-15.222 4.894-15.313l.009-.051c.08-.32.382-.862 1.007-.862.625 0 .927.541 1.008.861l.01.052c.011.091 1.241 9.189 4.892 15.313l.413.693z" fill="#4D4E4C"/><path fill="#FFFFFE" d="M124.474 71.49h-1.394v4.912h2.654V71.49h-1.26"/><path d="M123.538 75.944h1.738v-3.996h-1.738v3.996zm-.917.917h3.571v-5.829h-3.571v5.829z" fill="#4D4E4C"/><path fill="#FFFFFE" d="M127.388 76.402h2.657V71.49h-2.657z"/><path d="M127.846 75.944h1.74v-3.996h-1.74v3.996zm-.916.917h3.573v-5.829h-3.573v5.829z" fill="#4D4E4C"/><path fill="#FFFFFE" d="M132.963 71.49h-1.267v4.912h2.658V71.49h-1.391"/><path d="M132.154 75.944h1.742v-3.996h-1.742v3.996zm-.916.917h3.575v-5.829h-3.575v5.829z" fill="#4D4E4C"/><path d="M261.055 146.311v-5.99h-2.896v5.99h-4.66v-5.99h-2.893v5.99h-4.66v-5.99h-2.894v5.99h-4.664v-5.99h-2.89v5.99h-4.662v-5.99h-2.891v5.99h-2.172v34.381h7.389V159.92a6.825 6.825 0 016.824-6.82c1.744 0 3.327.657 4.533 1.731a6.807 6.807 0 012.289 5.089v20.798h16.805v-34.407h-2.558" fill="#FFFFFE"/><path d="M247.266 180.26h15.889v-33.491h-2.558v-5.99h-1.98v5.99h-5.576v-5.99h-1.977v5.99h-5.576v-5.99h-1.978v5.99h-5.58v-5.99h-1.974v5.99h-5.579v-5.99h-1.974v5.99h-2.171v33.464h6.472V159.92c0-4.013 3.267-7.278 7.282-7.278 1.782 0 3.5.656 4.837 1.848a7.286 7.286 0 012.443 5.43v20.34zm16.806.916H246.35V159.92a6.37 6.37 0 00-2.136-4.746 6.354 6.354 0 00-4.228-1.616 6.37 6.37 0 00-6.365 6.362v21.23h-8.306v-35.297h2.171v-5.99h3.808v5.99h3.745v-5.99h3.808v5.99h3.746v-5.99h3.811v5.99h3.744v-5.99h3.809v5.99h3.744v-5.99h3.813v5.99h2.558v35.323z" fill="#4D4E4C"/><path d="M217.313 75.388c-4.867 0-8.814 3.949-8.814 8.812h17.623c0-4.863-3.943-8.812-8.809-8.812" fill="#FFFFFE"/><path d="M208.97 83.742h16.682c-.239-4.394-3.888-7.896-8.339-7.896-4.454 0-8.105 3.502-8.343 7.896zm17.61.917h-18.54V84.2c0-5.111 4.16-9.27 9.273-9.27 5.11 0 9.267 4.159 9.267 9.27v.459z" fill="#4D4E4C"/><path d="M244.519 154.831a6.788 6.788 0 00-4.533-1.731 6.825 6.825 0 00-6.824 6.82v20.798h13.646V159.92a6.807 6.807 0 00-2.289-5.089" fill="#FFFFFE"/><path d="M233.621 180.26h12.729v-20.34a6.37 6.37 0 00-2.136-4.746 6.354 6.354 0 00-4.228-1.616 6.37 6.37 0 00-6.365 6.362v20.34zm13.645.916h-14.562V159.92c0-4.013 3.267-7.278 7.282-7.278 1.782 0 3.5.656 4.837 1.848h.001a7.288 7.288 0 012.442 5.43v21.256z" fill="#4D4E4C"/><path fill="#FFFFFE" d="M258.159 140.321h2.896v-7.781h-2.896z"/><path d="M258.617 139.863h1.98v-6.865h-1.98v6.865zm-.916.916h3.813v-8.697h-3.813v8.697z" fill="#4D4E4C"/><path fill="#FFFFFE" d="M250.606 140.321h2.893v-7.781h-2.893z"/><path d="M251.064 139.863h1.977v-6.865h-1.977v6.865zm-.916.916h3.809v-8.697h-3.809v8.697z" fill="#4D4E4C"/><path fill="#FFFFFE" d="M235.498 140.321h2.89v-7.781h-2.89z"/><path d="M235.956 139.863h1.974v-6.865h-1.974v6.865zm-.917.916h3.808v-8.697h-3.808v8.697z" fill="#4D4E4C"/><path fill="#FFFFFE" d="M227.945 140.321h2.891v-7.781h-2.891z"/><path d="M228.403 139.863h1.974v-6.865h-1.974v6.865zm-.917.916h3.808v-8.697h-3.808v8.697z" fill="#4D4E4C"/><path fill="#FFFFFE" d="M244.519 132.54h-1.467v7.781h2.894v-7.781h-1.427"/><path d="M243.51 139.863h1.978v-6.865h-1.978v6.865zm-.917.916h3.811v-8.697h-3.811v8.697z" fill="#4D4E4C"/><path fill="#FFFFFE" d="M225.746 132.54h-2.464v13.771h4.663V132.54h-2.199"/><path d="M223.74 145.853h3.746v-12.855h-3.746v12.855zm-.917.916h5.58v-14.687h-5.58v14.687z" fill="#4D4E4C"/><path fill="#FFFFFE" d="M230.836 146.311h4.662V132.54h-4.662z"/><path d="M231.294 145.853h3.745v-12.855h-3.745v12.855zm-.917.916h5.579v-14.687h-5.579v14.687z" fill="#4D4E4C"/><path fill="#FFFFFE" d="M238.388 146.311h4.664V132.54h-4.664z"/><path d="M238.847 145.853h3.746v-12.855h-3.746v12.855zm-.917.916h5.58v-14.687h-5.58v14.687z" fill="#4D4E4C"/><path fill="#FFFFFE" d="M245.946 146.311h4.66V132.54h-4.66z"/><path d="M246.404 145.853h3.744v-12.855h-3.744v12.855zm-.916.916h5.576v-14.687h-5.576v14.687z" fill="#4D4E4C"/><path fill="#FFFFFE" d="M253.499 146.311h4.66V132.54h-4.66z"/><path d="M253.957 145.853h3.744v-12.855h-3.744v12.855zm-.916.916h5.576v-14.687h-5.576v14.687z" fill="#4D4E4C"/><path fill="#FFFFFE" d="M263.291 132.54h-2.236v13.771h4.657V132.54h-2.421"/><path d="M261.514 145.853h3.739v-12.855h-3.739v12.855zm-.917.916h5.573v-14.687h-5.573v14.687z" fill="#4D4E4C"/><path fill="#FFFFFE" d="M265.457 125.28h-41.872l-2.984 7.26h47.841l-2.985-7.26"/><path d="M221.285 132.082h46.473l-2.607-6.344h-41.258l-2.608 6.344zm47.84.916h-49.208l3.362-8.176h42.485l3.361 8.176z" fill="#4D4E4C"/><path d="M246.464 71.669s-.441-1.782-1.945-1.782c-1.503 0-1.945 1.782-1.945 1.782s-.429 3.301-1.45 8.499a206.126 206.126 0 01-.824 3.982c-1.029 4.75-2.449 10.474-4.326 16.492-1.646 5.263-3.642 10.75-6.046 15.999-1.364 2.984-2.862 5.894-4.498 8.639h38.183c-12.964-21.745-17.149-53.611-17.149-53.611" fill="#FFFFFE"/><path d="M226.232 124.822h36.579c-12.374-21.265-16.643-51.924-16.797-53.063-.052-.186-.437-1.414-1.495-1.414-1.057 0-1.445 1.238-1.494 1.414-.046.346-.492 3.606-1.452 8.498-.27 1.374-.541 2.679-.825 3.99a193.41 193.41 0 01-4.337 16.532c-1.835 5.869-3.876 11.27-6.066 16.053a93.032 93.032 0 01-4.113 7.99zm38.188.916h-39.797l.413-.693c1.554-2.608 3.06-5.499 4.475-8.594 2.175-4.749 4.202-10.114 6.025-15.945a193.046 193.046 0 004.317-16.453c.283-1.305.552-2.605.821-3.973 1.006-5.122 1.441-8.438 1.446-8.47l.01-.051c.022-.087.548-2.131 2.389-2.131 1.841 0 2.369 2.043 2.39 2.131l.01.051c.042.317 4.321 32.023 17.088 53.435l.413.693z" fill="#4D4E4C"/><path d="M141.728 150.357c-1.784 0-3.239 1.931-3.239 4.314v13.151h6.477v-13.151c0-2.383-1.449-4.314-3.238-4.314" fill="#FFFFFE"/><path d="M138.947 167.363h5.561v-12.692c0-2.126-1.248-3.855-2.78-3.855-1.533 0-2.781 1.729-2.781 3.855v12.692zm6.477.917h-7.393v-13.609c0-2.632 1.658-4.772 3.697-4.772 2.038 0 3.696 2.14 3.696 4.772v13.609z" fill="#4D4E4C"/><path d="M149.358 150.357c-1.786 0-3.237 1.931-3.237 4.314v13.151h6.473v-13.151c0-2.383-1.451-4.314-3.236-4.314" fill="#FFFFFE"/><path d="M146.579 167.363h5.556v-12.692c0-2.126-1.245-3.855-2.777-3.855-1.533 0-2.779 1.729-2.779 3.855v12.692zm6.473.917h-7.389v-13.609c0-2.632 1.658-4.772 3.695-4.772s3.694 2.14 3.694 4.772v13.609z" fill="#4D4E4C"/><path d="M164.788 150.357c-1.791 0-3.237 1.931-3.237 4.314v13.151h6.469v-13.151c0-2.383-1.443-4.314-3.232-4.314" fill="#FFFFFE"/><path d="M162.009 167.363h5.553v-12.692c0-2.126-1.244-3.855-2.774-3.855-1.532 0-2.779 1.729-2.779 3.855v12.692zm6.469.917h-7.385v-13.609c0-2.632 1.658-4.772 3.695-4.772 2.034 0 3.69 2.14 3.69 4.772v13.609z" fill="#4D4E4C"/><path d="M172.419 150.357c-1.788 0-3.237 1.931-3.237 4.314v13.151h6.474v-13.151c0-2.383-1.453-4.314-3.237-4.314" fill="#FFFFFE"/><path d="M169.64 167.363h5.557v-12.692c0-2.126-1.246-3.855-2.778-3.855-1.533 0-2.779 1.729-2.779 3.855v12.692zm6.474.917h-7.39v-13.609c0-2.632 1.657-4.772 3.695-4.772 2.037 0 3.695 2.14 3.695 4.772v13.609z" fill="#4D4E4C"/><path fill="#FFFFFE" d="M178.79 143.039l-21.718-11.127-21.723 11.127H122.44v2.692h12.909l21.723-11.128 21.718 11.128h11.313v-2.692H178.79"/><path d="M178.901 145.273h10.743v-1.775H178.68l-.099-.051-21.509-11.02-21.612 11.071h-12.562v1.775h12.341l21.833-11.185.209.108 21.62 11.077zm11.66.916H178.68l-.099-.05-21.509-11.02-21.612 11.07h-13.479v-3.608h13.258l21.833-11.184.209.107 21.62 11.077h11.66v3.608z" fill="#4D4E4C"/><path d="M175.656 167.822h-6.474v-13.151c0-2.383 1.449-4.314 3.237-4.314 1.784 0 3.237 1.931 3.237 4.314v13.151zm-7.636 0h-6.469v-13.151c0-2.383 1.446-4.314 3.237-4.314 1.789 0 3.232 1.931 3.232 4.314v13.151zm-15.426 0h-6.473v-13.151c0-2.383 1.451-4.314 3.237-4.314 1.785 0 3.236 1.931 3.236 4.314v13.151zm-7.628 0h-6.477v-13.151c0-2.383 1.455-4.314 3.239-4.314 1.789 0 3.238 1.931 3.238 4.314v13.151zm12.106-33.219l-21.723 11.128H122.44v34.961h67.663v-34.961H178.79l-21.718-11.128z" fill="#FFFFFE"/><path d="M138.947 167.363h5.561v-12.692c0-2.126-1.248-3.855-2.78-3.855-1.533 0-2.781 1.729-2.781 3.855v12.692zm6.477.917h-7.393v-13.609c0-2.632 1.658-4.772 3.697-4.772 2.038 0 3.696 2.14 3.696 4.772v13.609zm1.155-.917h5.556v-12.692c0-2.126-1.245-3.855-2.777-3.855-1.533 0-2.779 1.729-2.779 3.855v12.692zm6.473.917h-7.389v-13.609c0-2.632 1.658-4.772 3.695-4.772s3.694 2.14 3.694 4.772v13.609zm8.957-.917h5.553v-12.692c0-2.126-1.244-3.855-2.774-3.855-1.532 0-2.779 1.729-2.779 3.855v12.692zm6.469.917h-7.385v-13.609c0-2.632 1.658-4.772 3.695-4.772 2.034 0 3.69 2.14 3.69 4.772v13.609zm1.162-.917h5.557v-12.692c0-2.126-1.246-3.855-2.778-3.855-1.533 0-2.779 1.729-2.779 3.855v12.692zm6.474.917h-7.39v-13.609c0-2.632 1.657-4.772 3.695-4.772 2.037 0 3.695 2.14 3.695 4.772v13.609zm-53.216 11.953h66.746v-34.044H178.68l-.099-.05-21.509-11.02-21.612 11.07h-12.562v34.044zm67.663.917h-68.58v-35.877h13.258l21.833-11.185.209.108 21.62 11.077h11.66v35.877z" fill="#4D4E4C"/><path d="M120.206 148.982h-6.475V135.83c0-2.38 1.449-4.312 3.237-4.312 1.786 0 3.238 1.932 3.238 4.312v13.152zm-7.631 0H106.1V135.83c0-2.38 1.452-4.312 3.241-4.312 1.786 0 3.234 1.932 3.234 4.312v13.152zm-9.315-10.92v10.92h-6.471V135.83c0-2.38 1.446-4.312 3.236-4.312 1.783 0 3.235 1.932 3.235 4.312v2.232zm-7.63 0v10.92h-6.471V135.83c0-2.38 1.45-4.312 3.237-4.312 1.782 0 3.234 1.932 3.234 4.312v2.232zm10.813-14.438H84.205v57.068h4.954V159.89a6.822 6.822 0 1113.643 0v20.802h19.638v-37.653h1.601v-19.415h-17.598z" fill="#FFFFFE"/><g transform="translate(0 123)"><mask id="b" fill="#fff"><use xlink:href="#a"/></mask><path d="M89.617 25.524h5.555V12.831c0-2.126-1.246-3.854-2.776-3.854-1.533 0-2.779 1.728-2.779 3.854v12.693zm6.472.916H88.7V12.831c0-2.631 1.658-4.771 3.696-4.771 2.036 0 3.693 2.14 3.693 4.771V26.44zm1.158-.916h5.555V12.831c0-2.126-1.246-3.854-2.777-3.854-1.532 0-2.778 1.728-2.778 3.854v12.693zm6.471.916h-7.387V12.831c0-2.631 1.656-4.771 3.694-4.771 2.036 0 3.693 2.14 3.693 4.771V26.44zm2.84-.916h5.559V12.831c0-2.126-1.246-3.854-2.776-3.854-1.535 0-2.783 1.728-2.783 3.854v12.693zm6.475.916h-7.391V12.831c0-2.631 1.659-4.771 3.699-4.771 2.036 0 3.692 2.14 3.692 4.771V26.44zm1.156-.916h5.558V12.831c0-2.126-1.246-3.854-2.779-3.854-1.532 0-2.779 1.728-2.779 3.854v12.693zm6.475.916h-7.392V12.831c0-2.631 1.658-4.771 3.696-4.771 2.038 0 3.696 2.14 3.696 4.771V26.44zM103.26 57.233h18.721V19.581h1.601V1.082H84.664v56.151H88.7V36.89c0-4.015 3.266-7.281 7.279-7.281 4.015 0 7.281 3.266 7.281 7.281v20.343zm19.638.917h-20.554V36.89a6.372 6.372 0 00-6.365-6.364 6.37 6.37 0 00-6.362 6.364v21.26h-5.87V.165h40.752v20.333h-1.601V58.15zm129.076 73.043c-.449-.098-.692-.331-.727-.541-.033-.196.128-.386.436-.508.1-.04.153-.04.156-.043.103.084.204.479.135 1.092zm-21.338-.642c-.233-.278-.391-.546-.46-.783-.09-.314-.06-.549.37-.764.119.246.17.816.09 1.547zm-20.272-1.077c-.901-.351-1.617-.824-2.048-1.418-.305-.422-.71-1.132-.562-1.767a8.626 8.626 0 012.734-.612c.536.558.479 2.057-.124 3.797zm-7.139 6.531c-.908-.262-1.079-1.571-.94-2.71.253-2.007 1.571-4.579 3.908-6.166.109.603.393 1.232.843 1.857.611.841 1.557 1.479 2.717 1.937-1.496 3.058-4.176 5.762-6.528 5.082zm-26.22-3.032c-.154.063-.308.122-.467.182.404-2.553 2.493-5.943 5.24-7.334.722-.368 1.594-.549 2.363-.549.74 0 1.387.167 1.722.508.329.338.441.662.358 1.053l-.007.043a.719.719 0 00-.101.227c-.01.038-.019.078-.031.116-.458.954-2.236 3.042-9.077 5.754zm3.393 2.463c-.778.457-1.906.927-2.859.567-.205-.079-.758-.289-.979-1.168.355-.129.698-.26 1.03-.393 2.404-.954 5.105-2.2 7.129-3.625-1.099 1.891-2.7 3.663-4.321 4.619zm-6.756 17.545c-.693.289-1.306.25-1.926-.119-.774-.457-1.142-1.025-1.163-1.785-.084-3.332 6.055-8.941 11.791-12.746.054-.033.106-.068.158-.102-2.46 6.515-5.762 13.474-8.86 14.752zm-41.66-25.881a.944.944 0 00-.036.098c-.071.245-.149.494-.234.741a3.14 3.14 0 01-.804.961c-1.918 1.439-5.021 2.61-8.218 3.396.523-1.792 1.819-3.854 3.81-5.429 1.516-1.197 2.793-1.676 3.732-1.676.639 0 1.12.221 1.416.589.275.34.398.812.334 1.32zm-7.785 9.001h-.015c-.818-.003-1.336-.36-1.589-1.092a3.164 3.164 0 01-.16-1.02c2.836-.653 5.654-1.609 7.825-2.806-1.563 2.756-3.765 4.918-6.061 4.918zm-17.657-6.268c-.246-.347-.408-.683-.482-.983-.164-.66.179-.811.343-.885.03-.016.057-.023.076-.031.158.251.196.966.063 1.899zm-24.844-2.189c-1.121 1.794-4.932 4.19-9.679 6.087.086-1.78 1.24-4.143 2.866-5.695 1.694-1.623 4.013-2.764 5.513-2.764.141 0 .272.007.396.026.569.093.781.381.889.589.209.394.334 1.244.015 1.757zm-6.015 7.999c-.982.445-1.89.564-2.496.336a1.634 1.634 0 01-.841-.665c3.143-1.225 5.978-2.695 8.011-4.186-1.279 2.11-2.921 3.721-4.674 4.515zM51.228 103.97c3.271-9.956 8.872-19.41 12.488-21.069.31-.143.591-.214.834-.214.143 0 .274.026.391.071.641.27 1.032.725 1.232 1.438 1.256 4.49-5.602 17.424-18.811 35.484-.078.107-.16.214-.241.321.71-4.478 2.081-9.86 4.107-16.031zm57.626 8.858c.963-.818 1.853-1.231 2.651-1.231.269 0 .528.048.779.143.737.282.886.649.934.899.521 2.741-6.946 9.685-11.927 14.223 1.478-5.291 4.411-11.364 7.563-14.034zm55.249 12.497c.064.002.112.011.146.016-.025.148-.139.467-.511.944-.436.563-1.084 1.158-1.898 1.711.912-1.479 1.835-2.569 2.263-2.671zm69.176-11.406c1.033-1.002 2.48-2.079 3.915-2.079.286 0 .569.043.85.136.807.269.851.67.87.842.309 2.781-7.66 9.956-12.859 13.724 1.54-4.597 4.224-9.717 7.224-12.623zm98.808 16.327a.791.791 0 00-1.078-.297c-15.061 8.549-20.069 6.213-24.491 4.152-3.324-1.55-6.464-3.016-12.733.06-5.639 2.764-6.967 1.911-7.237 1.584-1.132-1.356 1.335-6.44 3.059-8.762l.007-.009a.79.79 0 00-.165-1.106.789.789 0 00-1.106.162c-4.937 6.635-9.327 10.566-11.181 10.015-.279-.083-.461-.255-.582-.561-.666-1.669.699-5.926 3.394-10.591a.793.793 0 00-.161-.991.798.798 0 00-1.004-.032c-.647.499-1.393 1.084-2.205 1.724-4.792 3.776-14.771 11.627-17.81 10.28-.132-.059-.263-.155-.327-.464-.405-1.967 2.61-6.944 3.421-7.915l.078-.089a.79.79 0 00-.066-1.109.79.79 0 00-1.145.093c-3.011 3.43-5.635 4.462-7.184 4.75.06-.905-.138-1.666-.592-2.136-.481-.495-1.164-.614-1.882-.328-1.018.404-1.571 1.287-1.408 2.24.126.748.744 1.524 1.859 1.802l-.023.06c-.744 1.687-2.245 3.461-3.774 3.378-.694-.038-.909-.358-1.028-.665-.663-1.722 1.118-6.387 4.344-9.997l.379-.404.283-.3a.789.789 0 00-.03-1.11.794.794 0 00-1.113.012 25.7 25.7 0 00-.628.672c-2.868 3.048-7.479 7.754-13.259 8.359a7.631 7.631 0 01-4.644-1.013c.345-1.594.286-3.151-.427-3.887-.46-.477-1.128-.563-1.783-.237-1.064.53-1.512 1.509-1.188 2.622.223.761.783 1.521 1.574 2.174-.15.448-.346.905-.591 1.349-.677 1.225-1.883 2.613-3.789 2.248-.292-.055-.706-.229-.964-1.079-.386-1.297-.181-3.454.455-5.95 4.031-2.722 15.647-11.778 15.145-16.306-.081-.721-.481-1.679-1.94-2.169-1.353-.451-3.554-.418-6.368 2.307-3.498 3.387-6.76 9.78-8.24 15.198-.089.056-.175.107-.26.159-3.205 1.936-8.262 2.522-11.791 1.781.937-2.717.684-4.855-.728-5.716a.133.133 0 00-.028-.016c-1.29-.771-2.949-.637-4.015.278-6.905 1.449-16.104 6.608-21.568 9.956a140.428 140.428 0 001.482-4.743c.278-.69.479-1.38.592-2.035a2.87 2.87 0 00.145-.484c.192-.912-.074-1.771-.775-2.486-1.326-1.346-4.109-1.187-5.93-.264-3.516 1.782-6.029 6.227-6.169 9.343-6.255 2.14-13.106 3.108-14.917 1.986-.629-.392-.533-1.572-.422-2.241.159-.937.51-1.966.954-2.97 3.196-1.407 5.362-3.742 5.325-5.284-.014-.656-.457-1.443-1.658-1.498-1.537-.085-3.551 2.868-4.833 5.554a12.376 12.376 0 01-3.309.786c-2.014.192-3.525.744-4.748 1.626.978-2.436 1.976-4.875 2.95-6.986a.791.791 0 00-1.393-.744c-.687 1.126-2.3 3.76-8.291 8.505-3.958 3.139-7.488 4.336-9.443 3.199-1.666-.968-2.256-3.755-1.663-7.866.3-1.125.062-2.252-.566-3.032-1.13-1.404-3.733-2.028-7.359.839-2.625 2.074-4.122 4.765-4.539 7.053a37.56 37.56 0 01-4.958.691c-3.623.241-6.433-.868-8.143-2.183.441-1.787.458-3.504-.225-4.317-.459-.543-1.166-.674-1.896-.352-1.061.469-1.534 1.504-1.24 2.707.2.806.737 1.685 1.568 2.508-.25.753-.593 1.535-1.05 2.271-.744 1.202-1.965 2.527-3.545 2.031-.519-.165-.877-.712-1.063-1.632-.24-1.195-.143-2.89.22-4.82l.97-.882c7.853-7.144 13.812-12.885 13.152-16.359-.126-.662-.562-1.563-1.926-2.08-1.077-.411-2.819-.506-5.017 1.358-3.738 3.173-7.428 10.962-8.676 17.188-4.291 3.907-7.208 6.081-11.12 7.084-1.505.389-2.66.246-3.427-.424-1.209-1.054-1.681-3.585-1.297-6.946a.796.796 0 00-.072-.431c.449-1.075.176-2.312-.158-2.944-.407-.773-1.109-1.258-2.033-1.411-2.223-.363-5.332 1.313-7.257 3.154-2.146 2.049-3.503 5.129-3.346 7.435-2.677.964-5.579 1.744-8.42 2.164-4.116.607-9.727.713-13.098-2.232-2.037-1.783-2.757-5.661-2.186-11.342a27.007 27.007 0 001.9-2.304c9.69-13.243 20.862-30.391 19.058-36.843-.332-1.185-1.054-2.015-2.148-2.47-.745-.309-1.583-.252-2.494.165-4.497 2.062-10.309 12.812-13.329 22.012-1.966 5.988-3.825 12.808-4.483 18.728-4.369 4.636-11.349 9.287-19.025 12.583-9.311 3.998-17.343 5.053-21.489 2.82-3.559-1.911-4.118-6.224-1.669-12.817a.79.79 0 10-1.482-.55c-3.45 9.277-.599 13.147 2.4 14.761 4.565 2.458 13.115 1.425 22.865-2.76 7.113-3.056 13.665-7.267 18.199-11.596-.252 4.776.472 8.728 2.841 10.803 3.824 3.346 9.926 3.265 14.372 2.605 2.822-.417 5.79-1.192 8.585-2.182.368.735.971 1.276 1.78 1.583 1.013.389 2.332.258 3.715-.369 2.007-.911 3.873-2.708 5.315-5.049.157 1.817.684 3.549 1.917 4.625 1.185 1.032 2.819 1.292 4.858.767 3.766-.968 6.616-2.879 10.358-6.164-.124 1.304-.1 2.48.095 3.454.386 1.902 1.376 2.587 2.141 2.827 1.902.601 3.747-.266 5.192-2.438.448-.67.848-1.474 1.168-2.315 2.041 1.402 5.055 2.408 8.75 2.158a38.743 38.743 0 004.741-.63c.026.436.102.841.228 1.209.469 1.363 1.592 2.147 3.079 2.154h.022c3.06 0 5.7-2.576 7.49-5.787.255 3.049 1.465 4.486 2.623 5.16 2.575 1.497 6.668.281 11.225-3.329 2.149-1.705 3.766-3.153 5.008-4.399a578.546 578.546 0 00-1.308 3.243 349.299 349.299 0 01-1.679 4.147.797.797 0 00.406 1.026.794.794 0 001.037-.375c1.706-3.495 3.286-5.339 7.184-5.707.81-.076 1.596-.228 2.347-.433-.064.179-.122.349-.173.515-1.045 3.363-.15 4.759.784 5.339 2.6 1.609 10.168.181 15.923-1.726.295 1.022.953 1.762 1.913 2.124 1.223.46 2.679.226 4.221-.682.89-.524 1.764-1.249 2.57-2.096-.118.346-.242.702-.369 1.059-.842.534-1.499.966-1.931 1.251-5.829 3.867-12.602 9.878-12.497 14.102.033 1.301.7 2.377 1.935 3.108a3.616 3.616 0 001.862.526c.488 0 .982-.099 1.475-.301 4.117-1.703 7.983-10.562 10.496-17.665 6.003-3.8 13.174-7.7 19.018-9.719-1.841 1.864-2.815 4.241-3.042 6.033-.286 2.281.509 3.976 2.07 4.429 3.285.951 6.7-2.315 8.496-6.133 3.714.865 8.713.306 12.17-1.34-.412 2.122-.473 3.983-.08 5.299.462 1.548 1.443 2.04 2.182 2.179 2.209.422 4.216-.715 5.514-3.114.189-.357.366-.741.518-1.138a9.422 9.422 0 005.278 1.019c3.61-.379 6.741-2.147 9.328-4.189-1.042 2.278-1.51 4.485-.945 5.951.393 1.016 1.25 1.611 2.417 1.673 2.295.125 4.32-2.078 5.306-4.317.093-.213.176-.425.247-.63 1.085-.121 2.8-.546 4.834-1.886-.805 1.709-1.399 3.545-1.134 4.829.154.751.584 1.301 1.235 1.59 3.518 1.556 10.828-3.734 18.742-9.94-1.323 2.822-2.646 6.527-1.783 8.691.3.758.856 1.275 1.602 1.494 2.218.656 5.319-1.754 8.323-5-.47 1.62-.548 3.181.293 4.192 1.338 1.605 4.243 1.233 9.152-1.175 5.589-2.744 8.139-1.551 11.369-.047 4.766 2.225 10.171 4.748 25.937-4.21a.786.786 0 00.299-1.078z" fill="#4D4E4C" mask="url(#b)"/><path d="M285.567 123.167c2.185 0 5.031-1.163 7.901-2.529a.789.789 0 00.374-1.054.794.794 0 00-1.054-.376c-3.178 1.516-7.56 3.349-8.871 1.771a.79.79 0 00-1.219 1.011c.697.838 1.686 1.177 2.869 1.177M118.87 170.401a5.803 5.803 0 001.518-1.342c.785-.99 1.183-2.183 1.183-3.546 0-1.361-.408-2.569-1.214-3.592-.784-.995-1.845-1.762-3.152-2.282-1.276-.509-2.695-.767-4.221-.767-1.247 0-2.516.181-3.773.537a14.431 14.431 0 00-3.631 1.606.675.675 0 00-.264.848l.606 1.372a.68.68 0 00.99.291 10.955 10.955 0 016.04-1.834c1.637 0 3.015.383 4.095 1.137 1.019.713 1.513 1.654 1.513 2.875 0 1.085-.383 1.907-1.171 2.511-.831.638-2.034.961-3.576.961h-4.529a.675.675 0 00-.676.676v1.403c0 .373.302.676.676.676h4.593c1.848 0 3.284.351 4.269 1.042.923.648 1.371 1.547 1.371 2.748 0 .911-.262 1.673-.803 2.33-.559.681-1.334 1.214-2.303 1.584-2.066.79-4.609.766-6.914-.067a9.082 9.082 0 01-3.133-1.916.672.672 0 00-1.045.153l-.67 1.148a.675.675 0 00.131.842 11.992 11.992 0 004.003 2.399c1.482.535 3.014.806 4.552.806 1.587 0 3.087-.273 4.458-.812 1.402-.552 2.548-1.372 3.405-2.439.883-1.096 1.33-2.387 1.33-3.837 0-1.526-.493-2.848-1.466-3.928a6.572 6.572 0 00-2.192-1.583" fill="#4D4E4C" mask="url(#b)"/></g><path d="M131.066 296.833l4.791-10.578 4.818 10.578h-9.609zm6.233-14.28a.676.676 0 00-.614-.393h-1.627a.676.676 0 00-.614.393l-10.271 22.329a.674.674 0 00.613.958h1.755a.675.675 0 00.616-.396l2.659-5.888h12.081l2.691 5.89c.109.24.35.394.614.394h1.754a.676.676 0 00.614-.958l-10.271-22.329z" fill="#4D4E4C"/><g transform="translate(150 282)"><mask id="d" fill="#fff"><use xlink:href="#c"/></mask><path d="M24.262.16h-1.34a.674.674 0 00-.585.337l-9.399 16.247L3.538.497A.676.676 0 002.953.16H1.581a.675.675 0 00-.675.675v22.329c0 .374.302.676.675.676h1.595a.675.675 0 00.676-.676V6.628l8.087 13.909a.676.676 0 00.584.337h.798a.678.678 0 00.585-.338l8.089-13.97.028 16.599a.675.675 0 00.675.675h1.595a.675.675 0 00.676-.676L24.938.834a.675.675 0 00-.676-.674m25.7 16.524a8.775 8.775 0 01-3.32 3.276c-1.401.789-2.995 1.19-4.74 1.19-1.747 0-3.348-.401-4.759-1.191a8.725 8.725 0 01-3.334-3.275c-.808-1.388-1.217-2.963-1.217-4.684s.409-3.297 1.217-4.684a8.74 8.74 0 013.334-3.275c1.412-.79 3.013-1.19 4.759-1.19 1.744 0 3.338.399 4.739 1.188a8.802 8.802 0 013.321 3.277c.807 1.387 1.216 2.964 1.216 4.684 0 1.72-.409 3.296-1.216 4.684zm-1.8-15.131C46.303.522 44.197 0 41.902 0c-2.298 0-4.406.529-6.264 1.57a11.625 11.625 0 00-4.415 4.315C30.156 7.704 29.614 9.762 29.614 12c0 2.239.542 4.296 1.609 6.116a11.625 11.625 0 004.415 4.315C37.496 23.472 39.604 24 41.902 24c2.295 0 4.401-.522 6.259-1.551a11.529 11.529 0 004.419-4.301c1.068-1.821 1.609-3.89 1.609-6.148 0-2.258-.541-4.327-1.609-6.147a11.523 11.523 0 00-4.418-4.3z" fill="#4D4E4C" mask="url(#d)"/></g><path d="M218.697 293.71l8.218-10.457a.676.676 0 00-.531-1.093h-1.818a.68.68 0 00-.534.26l-7.802 10.011h-4.386v-9.596a.675.675 0 00-.676-.675h-1.627a.676.676 0 00-.676.675v22.329c0 .374.303.676.676.676h1.627a.675.675 0 00.676-.676v-9.914h4.359l8.315 10.338a.675.675 0 00.526.252h1.914a.675.675 0 00.529-1.096l-8.79-11.034" fill="#4D4E4C"/></g></svg>