<svg width="60" height="60" fill="none" xmlns="http://www.w3.org/2000/svg"><path d="M51.563 39.677H48.3l-4.603-6.787C42.472 31.08 40.462 30 38.32 30h-7.383v-6.774c0-.534-.42-.968-.938-.968H2.812c-.518 0-.937.434-.937.968v29.032c0 .534.42.968.938.968H9.46c-.052.32-.086.641-.086.968C9.375 57.395 11.898 60 15 60s5.625-2.604 5.625-5.806c0-.327-.034-.649-.086-.968h21.735c-.053.32-.087.641-.087.968 0 3.202 2.523 5.806 5.626 5.806 3.102 0 5.624-2.604 5.624-5.806 0-.327-.033-.649-.086-.968h3.837c.518 0 .937-.434.937-.968v-5.806c0-3.736-2.945-6.775-6.563-6.775zm3.827 4c.046.067.087.139.13.208.107.174.202.356.287.545.034.076.07.152.1.231.1.256.185.52.24.795.002.008.006.016.006.025v.003H52.5V41.71h.003l.024.006a4.8 4.8 0 01.77.247c.076.032.15.069.224.105.183.087.359.185.528.296.067.044.137.086.202.133.443.324.828.721 1.14 1.178zM3.75 24.193h25.313v21.29H3.75v-21.29zm15 30c0 2.134-1.682 3.87-3.75 3.87s-3.75-1.736-3.75-3.87c0-.329.04-.652.12-.968h.99a2.953 2.953 0 00-.172.968c0 1.6 1.261 2.903 2.812 2.903 1.55 0 2.813-1.303 2.813-2.904 0-.34-.068-.663-.173-.967h.99c.08.316.12.64.12.968zm-2.813 0c0 .533-.42.967-.937.967-.518 0-.938-.434-.938-.968 0-.533.42-.967.938-.967s.938.434.938.968zm35.626 0c0 2.134-1.682 3.87-3.75 3.87-2.069 0-3.75-1.736-3.75-3.87 0-.329.04-.652.12-.968h.99a2.953 2.953 0 00-.173.968c0 1.6 1.262 2.903 2.813 2.903 1.55 0 2.812-1.303 2.812-2.904 0-.34-.068-.663-.172-.967h.989c.08.316.12.64.12.968zm-2.813 0c0 .533-.42.967-.938.967-.517 0-.937-.434-.937-.968 0-.533.42-.967.938-.967.517 0 .937.434.937.968zm3.354-2.904H3.75v-3.87H30c.518 0 .938-.434.938-.968V31.936h7.383c1.53 0 2.965.77 3.84 2.064l4.884 7.2a.93.93 0 00.767.413h2.813v4.839c0 .534.42.967.938.967h4.687v3.871h-4.146z" fill="#C79B6B"/><path d="M36.563 33.87H33.75c-.518 0-.938.434-.938.969v6.774c0 .534.42.968.938.968h9.375c.518 0 .938-.434.938-.968 0-4.269-3.365-7.742-7.5-7.742zm-1.876 6.775v-4.839h1.876c2.782 0 5.099 2.097 5.547 4.839h-7.422zm3.897-13.029a.93.93 0 00.791.449c.32 0 .619-.17.791-.449l4.697-7.619a13.578 13.578 0 002.012-7.133v-.283c0-2.113-.808-4.086-2.278-5.557a7.333 7.333 0 00-5.452-2.181c-4.008.124-7.27 3.723-7.27 8.021 0 2.532.696 4.998 2.012 7.133l4.697 7.62zm.618-20.839a5.495 5.495 0 014.09 1.635A5.855 5.855 0 0145 12.582v.283a11.6 11.6 0 01-1.72 6.094l-3.905 6.336-3.906-6.336a11.597 11.597 0 01-1.719-6.094c0-3.263 2.445-5.994 5.452-6.087z" fill="#C79B6B"/><path d="M39.375 16.452c2.068 0 3.75-1.737 3.75-3.871 0-2.135-1.682-3.871-3.75-3.871s-3.75 1.736-3.75 3.87c0 2.136 1.682 3.872 3.75 3.872zm0-5.807c1.034 0 1.875.868 1.875 1.936 0 1.067-.84 1.935-1.875 1.935-1.034 0-1.875-.868-1.875-1.935 0-1.068.84-1.936 1.875-1.936zM10.313 26.13H8.437v17.418h1.876V26.13zm4.687 0h-1.875v17.418H15V26.13zm4.688 0h-1.875v17.418h1.875V26.13zm4.687 0H22.5v17.418h1.875V26.13zm-5.625-7.743h-1.875v1.936h1.875v-1.936zm0-3.871h-1.875v1.936h1.875v-1.936zm0-3.871h-1.875v1.936h1.875v-1.936zm3.75 0h-1.875v1.936H22.5v-1.936zm3.75 0h-1.875v1.936h1.875v-1.936zm3.75 0h-1.875v1.936H30v-1.936zm20.625 0H48.75v1.936h1.875v-1.936zm3.75 0H52.5v1.936h1.875v-1.936zm0 3.871H52.5v1.936h1.875v-1.936zm0 3.871H52.5v1.936h1.875v-1.936zm0 3.871H52.5v1.936h1.875v-1.936zm0 3.872H52.5v1.935h1.875v-1.936zm0 3.87H52.5v1.936h1.875V30zm0 3.87H52.5v1.936h1.875v-1.935zM36.563 44.516H33.75v1.936h2.813v-1.936z" fill="#C79B6B"/></svg>