<svg width="60" height="60" fill="none" xmlns="http://www.w3.org/2000/svg"><path d="M44.063 1.875H15.936a2.812 2.812 0 00-2.812 2.813v50.624a2.812 2.812 0 002.813 2.813h28.124a2.812 2.812 0 002.813-2.813V15H52.5a.938.938 0 00.938-.938v-3.75a4.688 4.688 0 00-4.688-4.687h-1.875v-.938a2.812 2.812 0 00-2.813-2.812zM15 55.313V4.687a.938.938 0 01.938-.937h28.124a.937.937 0 01.938.938v.937H17.812a.937.937 0 00-.937.938v43.124a.938.938 0 00.938.938h6.562v5.625h-8.438a.938.938 0 01-.937-.938zm30-45v2.812h-4.688v-2.813a4.612 4.612 0 00-.937-2.812h2.813A2.812 2.812 0 0145 10.313zm-3.75 38.765l-15 6.666V22.172l15-6.666v33.572zM18.75 15h19.022l-12.844 5.71a.937.937 0 00-.553.852V48.75H18.75V15zm19.688-4.688v2.813H33.75v-2.813a4.612 4.612 0 00-.938-2.812h2.813a2.812 2.812 0 012.813 2.813zm-6.563 0v2.813h-4.688v-2.813A4.612 4.612 0 0026.25 7.5h2.813a2.812 2.812 0 012.812 2.813zm-6.563 0v2.813H18.75V7.5h3.75a2.812 2.812 0 012.813 2.813zm18.75 45.938H29.729l12.844-5.71a.937.937 0 00.553-.852V15H45v40.313a.938.938 0 01-.938.937zm7.5-45.938v2.813h-4.687v-2.813a4.612 4.612 0 00-.938-2.812h2.813a2.812 2.812 0 012.813 2.813z" fill="#C79B6B"/><path d="M30 38.438a1.875 1.875 0 100-3.75h-.938a.938.938 0 00-.843 1.33c-.06.176-.092.36-.094.544A1.875 1.875 0 0030 38.438z" fill="#C79B6B"/></svg>