<svg width="60" height="60" fill="none" xmlns="http://www.w3.org/2000/svg"><path d="M12.873 22.221a.82.82 0 01-.741-1.17c.218-.463.506-.967.86-1.507-2.48-.512-3.734-1.33-3.734-2.435s1.254-1.921 3.732-2.434c-1.39-2.115-1.7-3.58-.918-4.36.782-.782 2.246-.473 4.36.917.513-2.478 1.33-3.732 2.435-3.732 1.097 0 1.91 1.235 2.423 3.676l2.532-1.94c-1.63-2.342-2.035-3.949-1.203-4.78.782-.782 2.246-.473 4.36.917.513-2.478 1.33-3.732 2.435-3.732s1.922 1.254 2.434 3.732c2.115-1.39 3.58-1.7 4.36-.918.788.787.468 2.266-.946 4.404.932.234 2.236.638 3.422 1.273.512-2.526 1.333-3.804 2.449-3.804 1.105 0 1.921 1.254 2.434 3.732 2.115-1.39 3.58-1.699 4.36-.917.782.781.473 2.245-.917 4.36 2.478.513 3.732 1.33 3.732 2.434 0 1.106-1.255 1.923-3.734 2.435.301.46.555.894.76 1.299a.82.82 0 11-1.466.738c-.31-.615-.782-1.353-1.366-2.133a.82.82 0 01.54-1.303c2.228-.32 3.22-.791 3.538-1.036-.319-.244-1.31-.714-3.538-1.035a.82.82 0 01-.54-1.303c1.349-1.803 1.717-2.836 1.77-3.235-.398.053-1.432.421-3.234 1.77a.82.82 0 01-1.304-.54c-.32-2.228-.79-3.219-1.035-3.538-.244.32-.715 1.31-1.036 3.538a.821.821 0 01-1.303.54c-1.641-1.228-4.39-1.827-5.037-1.92a.82.82 0 01-.54-1.303c1.35-1.802 1.717-2.836 1.77-3.234-.398.053-1.432.42-3.234 1.77a.82.82 0 01-1.303-.54c-.321-2.228-.791-3.22-1.036-3.539-.244.32-.715 1.31-1.035 3.539a.82.82 0 01-1.304.54c-1.802-1.349-2.835-1.717-3.234-1.77.053.398.421 1.432 1.77 3.234a.82.82 0 01-.158 1.143l-4.24 3.246a.82.82 0 01-1.31-.534c-.321-2.228-.792-3.22-1.036-3.538-.244.319-.715 1.31-1.035 3.538a.82.82 0 01-1.304.54c-1.802-1.349-2.836-1.717-3.234-1.77.053.399.42 1.432 1.77 3.234a.82.82 0 01-.54 1.304c-2.228.32-3.22.79-3.538 1.035.319.244 1.31.715 3.538 1.035a.82.82 0 01.54 1.304c-.641.856-1.142 1.652-1.449 2.302a.82.82 0 01-.742.471z" fill="#C79B6B"/><path d="M18.867 19.688a2.581 2.581 0 01-2.578-2.579 2.581 2.581 0 012.578-2.578 2.581 2.581 0 012.578 2.578 2.581 2.581 0 01-2.578 2.578zm0-3.516a.939.939 0 000 1.875.939.939 0 000-1.875zm10.547-2.344a2.581 2.581 0 01-2.578-2.578 2.581 2.581 0 012.578-2.578 2.581 2.581 0 012.578 2.578 2.581 2.581 0 01-2.578 2.578zm0-3.515a.939.939 0 000 1.874.939.939 0 000-1.874zm11.719 8.203a2.581 2.581 0 01-2.578-2.578 2.581 2.581 0 012.578-2.579 2.581 2.581 0 012.578 2.579 2.581 2.581 0 01-2.578 2.578zm0-3.516a.939.939 0 000 1.875.939.939 0 000-1.875zm-8.662 31.64h-8.895a.82.82 0 01-.627-.29c-1.537-1.824-2.899-4.08-3.914-5.842-3.557-6.182-5.251-13-4.533-18.237a.82.82 0 011.125-.647c4.888 2.013 9.93 6.906 13.484 13.09 1.912 3.32 3.384 7.18 4.148 10.879a.82.82 0 01-.788 1.048zM23.962 45h7.485a36.15 36.15 0 00-3.758-9.468c-3.13-5.446-7.43-9.82-11.673-11.93-.31 4.728 1.31 10.644 4.441 16.087.926 1.608 2.148 3.638 3.505 5.311z" fill="#C79B6B"/><path d="M35.645 46.64h-3.179a.82.82 0 01-.804-.656c-.573-2.815-1.563-5.738-2.789-8.231a.82.82 0 01.001-.726 44.32 44.32 0 011.233-2.312c3.559-6.186 8.6-11.079 13.487-13.09a.82.82 0 011.125.646c.719 5.238-.976 12.055-4.533 18.236-1.015 1.763-2.377 4.02-3.914 5.842a.82.82 0 01-.627.292zM33.13 45h2.13c1.357-1.672 2.579-3.703 3.505-5.311 3.132-5.443 4.752-11.358 4.441-16.087-4.242 2.109-8.542 6.484-11.675 11.93a42.156 42.156 0 00-1.006 1.866A36.894 36.894 0 0133.129 45zM10.727 58.36a2.42 2.42 0 01-1.72-.715c-.513-.513-.697-1.046-.71-1.566-.595-.018-1.108-.25-1.567-.71a2.419 2.419 0 01-.714-1.721c0-.65.253-1.261.714-1.722 1.375-1.375 3.868-1.375 6.278-1.375a.822.822 0 01.822.822v.035c-.006 2.394-.013 4.868-1.382 6.237a2.42 2.42 0 01-1.72.714zm-1.422-4.105a.82.82 0 01.777 1.083c-.256.758-.14.922.084 1.147a.789.789 0 001.122 0c.777-.776.88-2.497.897-4.291-1.799.014-3.518.116-4.295.893a.788.788 0 000 1.122c.193.193.322.23.481.23.164 0 .385-.046.678-.143a.822.822 0 01.256-.04zm.918-6.164c-1.945 0-3.708-1.763-5.412-3.467a.82.82 0 01.001-1.162l.025-.024c1.696-1.688 3.45-3.434 5.386-3.434a2.437 2.437 0 012.434 2.434c0 .725-.247 1.232-.605 1.61.358.38.605.887.605 1.61a2.437 2.437 0 01-2.434 2.433zm-3.668-4.046c1.281 1.262 2.57 2.406 3.668 2.406a.794.794 0 00.794-.794c0-.318-.035-.516-.758-.881a.82.82 0 01.006-1.468c.717-.354.752-.552.752-.87a.794.794 0 00-.793-.793c-1.099 0-2.388 1.143-3.67 2.4zm45.771 3.768c-.649 0-1.26-.254-1.72-.715-.513-.512-.697-1.046-.71-1.566-.595-.018-1.108-.25-1.567-.71a2.437 2.437 0 010-3.442c1.375-1.376 3.868-1.376 6.278-1.376a.822.822 0 01.822.823v.035c-.006 2.393-.013 4.868-1.382 6.236-.46.46-1.071.715-1.72.715zm-1.422-4.105a.82.82 0 01.778 1.083c-.256.758-.141.922.084 1.147a.788.788 0 001.122 0c.776-.776.88-2.497.897-4.29-1.8.013-3.52.115-4.296.892a.794.794 0 000 1.122c.193.193.323.23.481.23.164 0 .386-.046.678-.143a.817.817 0 01.256-.04zm.921-6.164c-1.945 0-3.708-1.762-5.413-3.467a.82.82 0 01.002-1.162l.024-.024c1.697-1.688 3.451-3.434 5.387-3.434a2.437 2.437 0 012.434 2.434c0 .725-.247 1.233-.605 1.61.358.38.605.887.605 1.61a2.437 2.437 0 01-2.434 2.434zm-3.668-4.046c1.281 1.262 2.57 2.406 3.668 2.406a.794.794 0 00.794-.794c0-.318-.036-.516-.758-.881a.82.82 0 01.006-1.468c.717-.354.752-.552.752-.87a.794.794 0 00-.794-.793c-1.098 0-2.388 1.143-3.668 2.4z" fill="#C79B6B"/><path d="M38.203 58.36H20.625a.82.82 0 01-.796-1.021l2.952-11.72a.82.82 0 01.795-.619h12.069a.82.82 0 01.801.645l2.559 11.72a.82.82 0 01-.802.994zm-16.526-1.641h15.507l-2.2-10.078H24.216l-2.539 10.078zM30 27.89c-.21 0-.42-.08-.58-.24l-7.031-7.03a.82.82 0 111.16-1.16l6.45 6.45 6.452-6.45a.82.82 0 011.16 1.16l-7.031 7.03c-.16.16-.37.24-.58.24z" fill="#C79B6B"/><path d="M30 27.89a.82.82 0 01-.82-.82v-9.375a.82.82 0 011.64 0v9.375a.82.82 0 01-.82.82zm-2.345 17.579a.82.82 0 01-.812-.711c-.696-5.169-4.411-8.862-4.448-8.899a.82.82 0 011.148-1.171c.17.166 4.155 4.13 4.926 9.85a.82.82 0 01-.814.93zm8.976-11.086l.004-.011-1.55-.54c.07-.2.77-2.008 3.856-3.941a.82.82 0 11.87 1.39c-2.592 1.625-3.174 3.087-3.18 3.102zm-.771 16.945h-8.204a.82.82 0 110-1.64h8.203a.82.82 0 010 1.64z" fill="#C79B6B"/></svg>