<svg width="23" height="22" fill="none" xmlns="http://www.w3.org/2000/svg"><path fill-rule="evenodd" clip-rule="evenodd" d="M14.567.101a.71.71 0 01.976.245l4.267 7.11a.712.712 0 01-1.22.732l-4.267-7.111A.712.712 0 0114.567.1zm-6.38 0a.711.711 0 00-.975.245l-4.267 7.11a.711.711 0 101.22.732l4.267-7.111A.711.711 0 008.187.1z" fill="currentColor"/><path fill-rule="evenodd" clip-rule="evenodd" d="M1.422 8.533v1.423h19.911V8.533H1.423zm-.71-1.422A.711.711 0 000 7.822v2.845a.711.711 0 00.711.71h21.333a.712.712 0 00.712-.71V7.822a.711.711 0 00-.712-.71H.711z" fill="currentColor"/><path fill-rule="evenodd" clip-rule="evenodd" d="M19.91 11.378H2.845v7.11a1.422 1.422 0 001.422 1.423h14.222a1.422 1.422 0 001.423-1.422v-7.111zM2.845 9.956a1.422 1.422 0 00-1.422 1.422v7.11a2.845 2.845 0 002.844 2.845h14.222a2.845 2.845 0 002.845-2.844v-7.111a1.422 1.422 0 00-1.422-1.422H2.844z" fill="currentColor"/><path fill-rule="evenodd" clip-rule="evenodd" d="M5.692 12.8a.711.711 0 01.71.71v4.268a.711.711 0 01-1.422 0V13.51a.71.71 0 01.712-.711zm2.844 0a.711.711 0 01.711.71v4.268a.711.711 0 01-1.422 0V13.51a.71.71 0 01.711-.711zm2.844 0a.711.711 0 01.711.71v4.268a.711.711 0 01-1.422 0V13.51a.711.711 0 01.711-.711zm2.845 0a.711.711 0 01.711.71v4.268a.711.711 0 11-1.422 0V13.51a.711.711 0 01.71-.711zm2.844 0a.71.71 0 01.711.71v4.268a.711.711 0 11-1.422 0V13.51a.71.71 0 01.711-.711z" fill="currentColor"/></svg>