<svg width="512" height="512" xmlns="http://www.w3.org/2000/svg"><path d="M106.667 0H21.333C9.557 0 0 9.557 0 21.333v85.334C0 118.443 9.557 128 21.333 128h85.334c11.776 0 21.333-9.557 21.333-21.333V21.333C128 9.557 118.443 0 106.667 0zm0 192H21.333C9.557 192 0 201.557 0 213.333v85.334C0 310.443 9.557 320 21.333 320h85.334c11.776 0 21.333-9.557 21.333-21.333v-85.334c0-11.776-9.557-21.333-21.333-21.333zm0 192H21.333C9.557 384 0 393.557 0 405.333v85.334C0 502.443 9.557 512 21.333 512h85.334c11.776 0 21.333-9.557 21.333-21.333v-85.334c0-11.776-9.557-21.333-21.333-21.333zm192-384h-85.334C201.557 0 192 9.557 192 21.333v85.334c0 11.776 9.557 21.333 21.333 21.333h85.334c11.776 0 21.333-9.557 21.333-21.333V21.333C320 9.557 310.443 0 298.667 0zm0 192h-85.334C201.557 192 192 201.557 192 213.333v85.334c0 11.776 9.557 21.333 21.333 21.333h85.334c11.776 0 21.333-9.557 21.333-21.333v-85.334c0-11.776-9.557-21.333-21.333-21.333zm0 192h-85.334C201.557 384 192 393.557 192 405.333v85.334c0 11.776 9.557 21.333 21.333 21.333h85.334c11.776 0 21.333-9.557 21.333-21.333v-85.334c0-11.776-9.557-21.333-21.333-21.333zm192-384h-85.334C393.557 0 384 9.557 384 21.333v85.334c0 11.776 9.557 21.333 21.333 21.333h85.334c11.776 0 21.333-9.557 21.333-21.333V21.333C512 9.557 502.443 0 490.667 0zm0 192h-85.334C393.557 192 384 201.557 384 213.333v85.334c0 11.776 9.557 21.333 21.333 21.333h85.334c11.776 0 21.333-9.557 21.333-21.333v-85.334c0-11.776-9.557-21.333-21.333-21.333zm0 192h-85.334C393.557 384 384 393.557 384 405.333v85.334c0 11.776 9.557 21.333 21.333 21.333h85.334c11.776 0 21.333-9.557 21.333-21.333v-85.334c0-11.776-9.557-21.333-21.333-21.333z" fill="#FFF"/></svg>