<svg width="24" height="22" fill="none" xmlns="http://www.w3.org/2000/svg"><path d="M11.824 21.667a.74.74 0 01-.45-.155c-4.11-3.193-6.941-5.943-8.922-8.655C-.076 9.39-.652 6.19.737 3.344 1.727 1.312 4.573-.35 7.9.617a7.296 7.296 0 013.925 2.786A7.295 7.295 0 0115.749.617c3.318-.954 6.171.695 7.162 2.727 1.39 2.846.813 6.046-1.715 9.513-1.98 2.712-4.812 5.462-8.921 8.655a.739.739 0 01-.451.155zM6.007 1.822a4.36 4.36 0 00-3.94 2.165c-1.145 2.35-.628 4.967 1.582 7.99a42.224 42.224 0 008.175 8.012 42.226 42.226 0 008.175-8.005c2.217-3.03 2.727-5.646 1.581-7.99-.739-1.478-2.956-2.653-5.425-1.958a5.912 5.912 0 00-3.651 3.104.739.739 0 01-1.367 0 5.862 5.862 0 00-3.652-3.104 5.403 5.403 0 00-1.478-.214z" fill="currentColor"/></svg>