<svg width="20" height="20" fill="none" xmlns="http://www.w3.org/2000/svg"><path d="M15.63 7.443a4.216 4.216 0 00-.272-1.433 2.98 2.98 0 00-1.706-1.703 4.286 4.286 0 00-1.416-.271C11.612 4.008 11.415 4 9.833 4s-1.785 0-2.404.036c-.484.01-.962.101-1.415.271A2.985 2.985 0 004.308 6.01a4.24 4.24 0 00-.272 1.413c-.028.623-.036.82-.036 2.4s0 1.781.036 2.4c.01.483.101.96.272 1.414a2.981 2.981 0 001.706 1.702c.452.177.93.275 1.416.291.624.028.821.037 2.403.037s1.785 0 2.404-.037c.484-.01.963-.1 1.416-.27a2.99 2.99 0 001.706-1.704c.17-.452.262-.93.271-1.414.028-.622.037-.82.037-2.4-.002-1.58-.002-1.78-.038-2.399zM9.828 12.81a2.992 2.992 0 01-2.995-2.99 2.998 2.998 0 015.113-2.114 2.988 2.988 0 01-2.118 5.104zm3.114-5.394a.697.697 0 11-.003-1.393.697.697 0 01.003 1.393z" fill="currentColor"/><path d="M9.839 11.5a1.667 1.667 0 100-3.334 1.667 1.667 0 000 3.333z" fill="currentColor"/><circle cx="10" cy="10" r="9.5" stroke="currentColor"/></svg>