<svg width="64" height="71" fill="none" xmlns="http://www.w3.org/2000/svg"><g filter="url(#filter0_d)"><mask id="a" fill="#fff"><path fill-rule="evenodd" clip-rule="evenodd" d="M38.897 48.3c8.24-2.928 14.142-10.795 14.142-20.04C53.04 16.518 43.521 7 31.78 7s-21.26 9.518-21.26 21.26c0 9.246 5.903 17.114 14.146 20.04l6.315 8.42a1 1 0 001.6 0l6.317-8.42z"/></mask><path fill-rule="evenodd" clip-rule="evenodd" d="M38.897 48.3c8.24-2.928 14.142-10.795 14.142-20.04C53.04 16.518 43.521 7 31.78 7s-21.26 9.518-21.26 21.26c0 9.246 5.903 17.114 14.146 20.04l6.315 8.42a1 1 0 001.6 0l6.317-8.42z" fill="#667CCC"/><path d="M38.897 48.3l-.335-.943-.284.1-.181.242.8.6zm-14.232 0l.8-.6-.181-.241-.284-.101-.335.942zm6.315 8.42l.8-.6-.8.6zm1.6 0l-.8-.6.8.6zm19.46-28.46c0 8.809-5.623 16.307-13.478 19.097l.67 1.884c8.627-3.064 14.807-11.3 14.807-20.981h-2zM31.78 8c11.189 0 20.26 9.07 20.26 20.26h2C54.04 15.966 44.072 6 31.78 6v2zM11.52 28.26C11.52 17.07 20.59 8 31.78 8V6C19.485 6 9.52 15.966 9.52 28.26h2zM25 47.358c-7.857-2.79-13.48-10.288-13.48-19.098h-2c0 9.683 6.181 17.919 14.81 20.982l.67-1.884zm6.78 8.763l-6.315-8.42-1.6 1.2 6.315 8.42 1.6-1.2zm0 0l-1.6 1.2a2 2 0 003.2 0l-1.6-1.2zm6.317-8.422l-6.317 8.422 1.6 1.2 6.317-8.422-1.6-1.2z" fill="#fff" mask="url(#a)"/></g><path d="M39.008 27.3a2.05 2.05 0 00-2.599-.233 2.047 2.047 0 00-2.598.234 2.05 2.05 0 00-.234 2.598 2.048 2.048 0 00.234 2.599 2.05 2.05 0 002.598.233 2.03 2.03 0 002.598-.234 2.05 2.05 0 00.234-2.598 2.05 2.05 0 00-.233-2.598zm-.546 2.885c.494.494.494 1.3 0 1.767-.494.494-1.3.494-1.767 0a.39.39 0 00-.286-.104.39.39 0 00-.286.104c-.493.494-1.299.494-1.767 0-.467-.494-.493-1.3 0-1.767a.377.377 0 000-.546c-.493-.493-.493-1.299 0-1.767.494-.493 1.3-.493 1.767 0 .156.156.39.156.546 0 .494-.493 1.3-.493 1.767 0 .494.494.494 1.3 0 1.767-.13.156-.13.39.026.546z" fill="#fff"/><path d="M36.394 28.535c-.805 0-1.43.65-1.43 1.43 0 .779.65 1.428 1.43 1.428.806 0 1.455-.65 1.455-1.429 0-.78-.65-1.429-1.455-1.429zm0 2.105a.643.643 0 01-.65-.65c0-.364.286-.65.65-.65.364 0 .676.286.676.65 0 .364-.312.65-.676.65zm-7.34-1.416a.4.4 0 00-.39.39v.701a.4.4 0 00.39.39.4.4 0 00.39-.39v-.676c0-.233-.182-.415-.39-.415z" fill="#fff"/><path d="M42.54 34.836h-.13V25.3c.857-.52 1.455-1.455 1.455-2.754 0-.052 0-.078-.026-.104l-1.923-5.769v-1.091c0-.676-.546-1.247-1.247-1.247H22.895c-.675 0-1.247.545-1.247 1.247v1.091l-1.923 5.769c0 .026-.026.078-.026.104 0 1.091.442 1.922 1.066 2.468v9.796h-.13a.865.865 0 00-.858.858v.935c0 .468.39.858.858.858h21.904c.468 0 .858-.39.858-.858v-.935a.86.86 0 00-.858-.832zm-.91 0H31.158v-9.874c.234-.234.468-.468.624-.78.598 1.092 1.767 1.638 2.936 1.638 1.17 0 2.339-.572 2.936-1.637.598 1.091 1.767 1.637 2.937 1.637.363 0 .727-.052 1.065-.156v9.172h-.026zm-17.643 0V25.69c.805-.234 1.533-.728 1.948-1.507.598 1.091 1.767 1.637 2.91 1.637.52 0 1.04-.13 1.508-.338v9.354h-6.366zm-1.663-17.721h4.573l-1.273 5.04h-4.99l1.69-5.04zm13.537 0l1.274 5.04h-4.963v-5.04h3.69zm5.38 0l1.688 5.04h-5.015l-1.273-5.04h4.6zM28.845 25.04c-1.118 0-2.313-.675-2.495-2.105h5.015c-.182 1.456-1.377 2.105-2.52 2.105zm8.367-2.105c-.182 1.43-1.378 2.105-2.495 2.105-1.117 0-2.313-.675-2.494-2.105h4.989zm-5.82-.78h-4.964l1.273-5.04h3.69v5.04zm9.172 2.885c-1.118 0-2.313-.675-2.495-2.105h5.015c-.208 1.456-1.403 2.105-2.52 2.105zm-17.67-9.9H40.67c.26 0 .467.208.467.468v.753H22.428v-.753c0-.26.207-.468.467-.468zm-2.39 7.795h5.015c-.182 1.43-1.378 2.105-2.495 2.105-1.143 0-2.338-.65-2.52-2.105zm1.04 2.573c.467.208.96.312 1.454.312h.182v9.016h-1.663v-9.328h.026zM42.59 36.603c0 .026-.026.078-.078.078H20.635c-.026 0-.078-.026-.078-.078v-.935c0-.026.026-.078.078-.078h21.904c.026 0 .078.026.078.078v.935h-.026z" fill="#fff"/><defs><filter id="filter0_d" x=".52" y="0" width="62.52" height="70.121" filterUnits="userSpaceOnUse" color-interpolation-filters="sRGB"><feFlood flood-opacity="0" result="BackgroundImageFix"/><feColorMatrix in="SourceAlpha" values="0 0 0 0 0 0 0 0 0 0 0 0 0 0 0 0 0 0 127 0"/><feOffset dy="3"/><feGaussianBlur stdDeviation="5"/><feColorMatrix values="0 0 0 0 0 0 0 0 0 0 0 0 0 0 0 0 0 0 0.15 0"/><feBlend in2="BackgroundImageFix" result="effect1_dropShadow"/><feBlend in="SourceGraphic" in2="effect1_dropShadow" result="shape"/></filter></defs></svg>