<svg width="63" height="71" fill="none" xmlns="http://www.w3.org/2000/svg"><g filter="url(#filter0_d)"><mask id="a" fill="#fff"><path fill-rule="evenodd" clip-rule="evenodd" d="M38.377 48.3c8.241-2.928 14.143-10.795 14.143-20.04C52.52 16.518 43 7 31.26 7 19.518 7 10 16.518 10 28.26c0 9.246 5.903 17.114 14.145 20.04l6.316 8.42a1 1 0 001.6 0l6.316-8.42z"/></mask><path fill-rule="evenodd" clip-rule="evenodd" d="M38.377 48.3c8.241-2.928 14.143-10.795 14.143-20.04C52.52 16.518 43 7 31.26 7 19.518 7 10 16.518 10 28.26c0 9.246 5.903 17.114 14.145 20.04l6.316 8.42a1 1 0 001.6 0l6.316-8.42z" fill="#667CCC"/><path d="M38.377 48.3l-.335-.943-.284.1-.181.242.8.6zm-14.232 0l.8-.6-.18-.241-.285-.101-.335.942zm7.916 8.42l-.8-.6.8.6zM51.52 28.26c0 8.809-5.623 16.307-13.478 19.097l.67 1.885c8.627-3.065 14.808-11.3 14.808-20.982h-2zM31.26 8c11.189 0 20.26 9.07 20.26 20.26h2C53.52 15.966 43.554 6 31.26 6v2zM11 28.26C11 17.07 20.07 8 31.26 8V6C18.966 6 9 15.966 9 28.26h2zm13.48 19.098C16.623 44.568 11 37.07 11 28.26H9c0 9.683 6.182 17.919 14.81 20.982l.67-1.884zm6.78 8.763L24.946 47.7l-1.6 1.2 6.316 8.42 1.6-1.2zm0 0l-1.6 1.2a2 2 0 003.2 0l-1.6-1.2zm6.317-8.422l-6.316 8.422 1.6 1.2 6.316-8.422-1.6-1.2z" fill="#fff" mask="url(#a)"/></g><g clip-path="url(#clip0)" fill="#fff"><path d="M41.476 25.948h-.712a.79.79 0 00-.556.229.778.778 0 00-.23.55v.57a.132.132 0 01-.131.13h-.403a.131.131 0 01-.13-.13v-.569a.866.866 0 00-.023-.185v-4.125a.798.798 0 00.47-.794.79.79 0 00-.094-.311l-2.147-3.894a.797.797 0 00-.702-.413.806.806 0 00-.702.413l-2.145 3.894a.79.79 0 00.375 1.105v3.53h-.48a.631.631 0 00-.31.084v-8.674a.8.8 0 00.432-.47.786.786 0 00-.056-.635l-2.146-3.895a.796.796 0 00-.702-.413.805.805 0 00-.701.413l-2.146 3.895a.789.789 0 00.376 1.105v8.631a.62.62 0 00-.214-.041h-.62v-3.53a.8.8 0 00.432-.471.788.788 0 00-.056-.634l-2.146-3.894a.797.797 0 00-.702-.413.806.806 0 00-.702.413l-2.145 3.894a.79.79 0 00.375 1.105v4.13a.814.814 0 00-.021.18v.57a.13.13 0 01-.131.13h-.403a.132.132 0 01-.131-.13v-.57a.778.778 0 00-.231-.55.791.791 0 00-.555-.23h-.713a.79.79 0 00-.556.229.778.778 0 00-.23.551v2.106c0 .207.082.406.23.552a.79.79 0 00.555.229h.925v7.55h-.129c-.276 0-.542.11-.737.303a1.031 1.031 0 000 1.464c.195.194.46.303.738.303h19.34c.276 0 .541-.109.737-.303a1.03 1.03 0 000-1.464 1.047 1.047 0 00-.738-.303h-.128v-7.55h.819a.79.79 0 00.556-.229.778.778 0 00.23-.551v-2.106a.778.778 0 00-.23-.552.79.79 0 00-.556-.23zm-6.93-4.324l2.145-3.893a.144.144 0 01.127-.075.146.146 0 01.127.075l2.145 3.894a.144.144 0 01-.127.212h-4.29a.146.146 0 01-.145-.14c0-.026.006-.05.018-.072zm.455.863h3.634v3.463l-.022-.002H37.27a.75.75 0 00-.51.247.738.738 0 00-.188.533v.57a.131.131 0 01-.131.13h-.403a.132.132 0 01-.13-.13v-.57a.738.738 0 00-.188-.532.75.75 0 00-.511-.248H35v-3.46zm-3.196 3.46H30.46a.75.75 0 00-.51.248.738.738 0 00-.188.533v.57a.131.131 0 01-.131.13h-.363V17.426H32.9v10.001h-.268a.132.132 0 01-.13-.13v-.57a.738.738 0 00-.187-.532.75.75 0 00-.51-.248zm-2.992-9.382l2.146-3.894a.144.144 0 01.127-.074.145.145 0 01.127.074l2.143 3.893a.142.142 0 01-.003.142.145.145 0 01-.124.07h-4.29a.146.146 0 01-.124-.07.142.142 0 01-.003-.142l.001.001zm-1.758 9.383a.75.75 0 00-.51.247.738.738 0 00-.188.533v.57a.131.131 0 01-.131.13h-.402a.132.132 0 01-.132-.13v-.57a.738.738 0 00-.187-.532.75.75 0 00-.511-.248H23.56a.664.664 0 00-.07.008v-3.467h3.634v3.459h-.069zm-4.02-4.324l2.145-3.893a.145.145 0 01.201-.055.143.143 0 01.054.055l2.145 3.894a.143.143 0 01-.056.193.146.146 0 01-.072.02h-4.29a.145.145 0 01-.144-.142.15.15 0 01.017-.072zm18.138 16.577a.39.39 0 01-.388.385h-19.34a.39.39 0 01-.388-.385.384.384 0 01.389-.385h19.34a.39.39 0 01.388.385zm-8.536-1.035h-3.149v-4.637c0-.415.166-.812.462-1.105a1.58 1.58 0 012.226 0c.295.293.461.69.461 1.105v4.637zm7.365 0h-6.71v-4.637c0-.587-.235-1.15-.653-1.564a2.238 2.238 0 00-3.153 0 2.203 2.203 0 00-.653 1.564v4.637H22.23v-7.551h17.773v7.551zm1.605-8.331a.13.13 0 01-.13.13H20.65a.132.132 0 01-.132-.13v-2.106a.13.13 0 01.131-.13h.713a.131.131 0 01.13.13v.569a.782.782 0 00.231.551.79.79 0 00.556.23h.402a.791.791 0 00.556-.23.778.778 0 00.23-.551v-.57c0-.077.048-.13.091-.13l1.427-.001a.16.16 0 01.05.132v.569a.782.782 0 00.231.551.79.79 0 00.556.23h.402a.79.79 0 00.556-.23.779.779 0 00.23-.551v-.57a.194.194 0 01.044-.13h1.337a.16.16 0 01.05.132v.57a.77.77 0 00.26.574.783.783 0 00.528.207h.401a.79.79 0 00.556-.23.778.778 0 00.23-.55v-.573a.195.195 0 01.044-.13l1.336-.001a.16.16 0 01.05.132v.569a.782.782 0 00.231.551.79.79 0 00.556.23h.402a.785.785 0 00.787-.78v-.57a.194.194 0 01.044-.13h1.336a.16.16 0 01.05.131v.57a.781.781 0 00.231.55.79.79 0 00.556.23h.402a.791.791 0 00.556-.23.778.778 0 00.23-.55v-.572a.196.196 0 01.044-.13l1.336-.001a.16.16 0 01.05.132v.569c0 .207.084.405.231.551a.791.791 0 00.556.23h.402a.79.79 0 00.556-.23.778.778 0 00.23-.551v-.57a.131.131 0 01.131-.13h.712a.132.132 0 01.131.13l.001 2.107z"/><path d="M31.089 18.095a1.272 1.272 0 00-1.168.775 1.246 1.246 0 00.274 1.367 1.268 1.268 0 001.378.272 1.249 1.249 0 00.41-2.046 1.271 1.271 0 00-.894-.368zm0 1.86a.614.614 0 01-.563-.374.6.6 0 01.132-.659.61.61 0 011.04.428c0 .16-.064.314-.178.427a.613.613 0 01-.431.178zm-5.778 3.201a1.272 1.272 0 00-1.168.775 1.246 1.246 0 00.274 1.367 1.267 1.267 0 001.378.272 1.262 1.262 0 00.781-1.16c0-.332-.134-.65-.37-.886a1.272 1.272 0 00-.895-.368zm0 1.86a.613.613 0 01-.563-.374.6.6 0 01.133-.659.612.612 0 01.937.092.601.601 0 01-.076.763.613.613 0 01-.43.178zm11.501.65a1.272 1.272 0 001.168-.775 1.246 1.246 0 00-.274-1.367 1.268 1.268 0 00-1.378-.273 1.248 1.248 0 00-.41 2.046c.237.236.558.368.894.369zm0-1.86a.612.612 0 01.563.373.6.6 0 01-.133.66.61.61 0 01-1.04-.428.612.612 0 01.61-.605zm-5.416-2.289h-.627a.662.662 0 00-.466.192.652.652 0 00-.194.462v2.058a.663.663 0 00.66.654h.627c.174 0 .342-.07.466-.192a.652.652 0 00.193-.462V22.17c0-.173-.07-.34-.193-.462a.663.663 0 00-.466-.192zm.004 2.712l-.001.003h-.003l-.631-.003.004-2.062.631.004v2.058zm-6.23 12.226h.426c.201 0 .394-.08.537-.221a.752.752 0 00.223-.533v-3.752c0-.2-.08-.392-.223-.533a.764.764 0 00-.537-.221h-.426a.764.764 0 00-.537.22.752.752 0 00-.223.534V35.7c0 .2.08.392.223.533.142.141.335.22.537.221zm-.105-4.507a.104.104 0 01.105-.104h.426a.106.106 0 01.105.104V35.7a.104.104 0 01-.105.104h-.426a.104.104 0 01-.105-.104v-3.753zm11.457 4.507h.425c.202 0 .395-.08.538-.221a.752.752 0 00.222-.533v-3.752c0-.2-.08-.392-.223-.533a.764.764 0 00-.537-.221h-.425a.764.764 0 00-.537.22.752.752 0 00-.223.534V35.7c0 .2.08.392.223.533.142.141.335.22.537.221zm-.105-4.507c0-.028.011-.054.03-.074.02-.02.047-.03.075-.03h.425a.104.104 0 01.105.104V35.7a.104.104 0 01-.105.104h-.425a.105.105 0 01-.105-.104v-3.753z"/></g><defs><clipPath id="clip0"><path fill="#fff" transform="translate(17.086 11.724)" d="M0 0h27.953v27.953H0z"/></clipPath><filter id="filter0_d" x="0" y="0" width="62.52" height="70.121" filterUnits="userSpaceOnUse" color-interpolation-filters="sRGB"><feFlood flood-opacity="0" result="BackgroundImageFix"/><feColorMatrix in="SourceAlpha" values="0 0 0 0 0 0 0 0 0 0 0 0 0 0 0 0 0 0 127 0"/><feOffset dy="3"/><feGaussianBlur stdDeviation="5"/><feColorMatrix values="0 0 0 0 0 0 0 0 0 0 0 0 0 0 0 0 0 0 0.15 0"/><feBlend in2="BackgroundImageFix" result="effect1_dropShadow"/><feBlend in="SourceGraphic" in2="effect1_dropShadow" result="shape"/></filter></defs></svg>