<svg width="63" height="71" fill="none" xmlns="http://www.w3.org/2000/svg"><g filter="url(#filter0_d)"><mask id="a" fill="#fff"><path fill-rule="evenodd" clip-rule="evenodd" d="M38.376 48.3c8.242-2.927 14.144-10.794 14.144-20.04C52.52 16.518 43 7 31.26 7 19.518 7 10 16.518 10 28.26c0 9.246 5.902 17.113 14.144 20.04l6.316 8.42a1 1 0 001.6 0l6.316-8.42z"/></mask><path fill-rule="evenodd" clip-rule="evenodd" d="M38.376 48.3c8.242-2.927 14.144-10.794 14.144-20.04C52.52 16.518 43 7 31.26 7 19.518 7 10 16.518 10 28.26c0 9.246 5.902 17.113 14.144 20.04l6.316 8.42a1 1 0 001.6 0l6.316-8.42z" fill="#667CCC"/><path d="M38.376 48.3l-.335-.943-.284.101-.181.242.8.6zm-14.232 0l.8-.6-.181-.242-.284-.1-.335.942zm7.916 8.42l-.8-.6.8.6zm19.46-28.46c0 8.81-5.623 16.308-13.479 19.097l.67 1.885c8.628-3.064 14.809-11.3 14.809-20.982h-2zM31.26 8c11.189 0 20.26 9.07 20.26 20.26h2C53.52 15.966 43.554 6 31.26 6v2zM11 28.26C11 17.07 20.07 8 31.26 8V6C18.966 6 9 15.966 9 28.26h2zm13.479 19.097C16.623 44.567 11 37.07 11 28.26H9c0 9.682 6.181 17.918 14.81 20.982l.669-1.885zm6.78 8.764L24.945 47.7l-1.6 1.2 6.316 8.42 1.6-1.2zm0 0l-1.6 1.2a2 2 0 003.2 0l-1.6-1.2zm6.317-8.421l-6.316 8.42 1.6 1.2 6.316-8.42-1.6-1.2z" fill="#fff" mask="url(#a)"/></g><path d="M42.673 19.706a3.024 3.024 0 00-1.013-.62c.311-.285.557-.611.712-.951.252-.552.243-1.079-.025-1.485-.267-.407-.745-.622-1.354-.61-.373.008-.77.105-1.155.279a3.013 3.013 0 00-.169-1.177c-.211-.568-.59-.934-1.067-1.033-.8-.163-1.613.489-2.01 1.54a3.093 3.093 0 00-.803-.634 1.27 1.27 0 00-.25-.377c-.603-.603-1.692-.493-2.64.206-.177-1.166-.87-2.012-1.72-2.012-.852 0-1.544.846-1.721 2.013a3.14 3.14 0 00-1.14-.542c-.402-.092-.77-.07-1.076.057a1.25 1.25 0 00-.51-.312c-.462-.145-.97-.01-1.429.381a2.995 2.995 0 00-.716.94c-.666-.899-1.623-1.301-2.343-.925-.72.375-.938 1.39-.584 2.45-1.105-.163-2.066.228-2.31 1.003-.146.462-.01.97.381 1.43.241.282.565.527.94.715-.337.25-.612.548-.8.869-.305.52-.35 1.044-.126 1.474.224.43.68.693 1.281.741.37.03.772-.025 1.17-.158a2.87 2.87 0 00.092 1.307c-.027.29.08.593.323.853.127.136.282.255.459.354-.472.464-.643 1.06-.383 1.506.171.296.507.474.922.489.186.004.38-.02.575-.075-.002.203.024.398.08.575.027.09.064.17.105.247a.955.955 0 00-.023.216c.003.37.226.72.61.956.191.118.414.205.656.258-.397.644-.42 1.349-.007 1.755.264.26.669.35 1.109.245.218-.052.437-.149.645-.281.174.732.653 1.245 1.228 1.245h.008c.472-.004.87-.355 1.091-.884.008.004.014.01.023.014a.91.91 0 00.339.066l-.058 1.036-2.876-.386a.676.676 0 00-.535.16.655.655 0 00-.225.493v2.47c0 .187.082.367.225.492a.675.675 0 00.535.16l.412-.055-1.64 4.117a.354.354 0 00.46.461l.882-.346.382.944a.354.354 0 00.658-.002l1.453-3.65-.44 7.968a.354.354 0 00.707.04l.542-9.794h.375v8.788a.354.354 0 10.709 0v-8.788h.375l.542 9.794a.354.354 0 10.708-.04l-.441-7.969 1.453 3.651a.355.355 0 00.657.002l.384-.944.882.346a.353.353 0 00.458-.46l-1.64-4.118.413.055a.683.683 0 00.535-.16.654.654 0 00.225-.493v-2.47a.653.653 0 00-.225-.492.67.67 0 00-.535-.16l-2.876.386-.056-1.01a.905.905 0 00.254-.057c.05-.02.094-.053.14-.082.223.552.636.917 1.12.917h.008c.578-.005 1.052-.527 1.215-1.267.21.13.43.223.65.27.442.097.844.002 1.104-.262.406-.412.372-1.116-.036-1.754.736-.175 1.25-.658 1.246-1.236a.812.812 0 00-.02-.156c.04-.074.075-.15.102-.236.055-.178.081-.373.08-.575.195.055.389.08.574.075.415-.015.751-.193.923-.489.258-.447.088-1.042-.384-1.506.177-.099.333-.218.459-.354.024-.026.04-.054.061-.08a1.27 1.27 0 00.69-.207c.683-.45.796-1.486.333-2.51.42.018.826-.039 1.176-.17.567-.21.934-.59 1.032-1.066.098-.477-.089-.97-.527-1.389zm-15.61 15.837v-2.371l2.596.348v1.664l-2.596.359zm.873 4.733l-.183-.451a.355.355 0 00-.458-.197l-.447.176 1.484-3.729 1.349-.18-1.745 4.381zm4.925-6.758l2.595-.358v2.37l-2.596-.348V33.52zm1.326 2.557l1.484 3.729-.447-.176a.354.354 0 00-.458.197l-.183.451-1.744-4.382 1.348.181zm-6.879-20.92c.005-.004.007-.011.012-.016a.61.61 0 01.3-.159c.195-.046.404-.017.54.014.419.096.872.365 1.245.737l.109.116a.354.354 0 00.614-.256 3.575 3.575 0 01-.005-.157c0-1.009.493-1.894 1.055-1.894.562 0 1.055.885 1.055 1.894 0 .05-.002.104-.004.158-.006.148.092.273.23.33.136.057.306.01.406-.1.03-.03.057-.061.087-.09.34-.34.737-.576 1.104-.693.39-.123.74-.106.953.08.008.008.02.011.028.02a.649.649 0 01.174.39c.057.463-.22 1.124-.732 1.655-.013.013-.023.028-.036.04a2.64 2.64 0 01-.114.108.327.327 0 00-.093.162.368.368 0 00.016.234.343.343 0 00.206.192l.044.01s0-.002-.002-.003c.033.01.066.02.103.019a3.37 3.37 0 01.139-.004l.096.003c.711.022 1.347.286 1.634.64a.693.693 0 01.155.332c.004.027.008.053.008.08 0 .251-.178.488-.463.674-.11.071-.235.135-.372.189a2.94 2.94 0 01-1.058.192c-.048 0-.098-.002-.158-.004a.35.35 0 00-.337.223.349.349 0 00-.018.079.36.36 0 00.071.272c.013.017.024.036.04.05a2.841 2.841 0 01.77 1.129c-.19.244-.295.586-.295.973l-.002.02-.024-.006c-.385-.104-.755-.088-1.043.042a2.963 2.963 0 01-.76-.538l-.035-.03a3.18 3.18 0 01-.108-.115.351.351 0 00-.163-.097.351.351 0 00-.451.353c.002.053.005.107.005.157 0 1.009-.494 1.894-1.056 1.894s-1.055-.885-1.055-1.894c0-.05.002-.103.005-.156a.333.333 0 00-.114-.261.338.338 0 00-.24-.1.379.379 0 00-.275.12 3.454 3.454 0 01-.094.1c-.06.06-.123.112-.186.165a2.924 2.924 0 01-.542.367 1.322 1.322 0 00-.324-.068 1.999 1.999 0 00-.648.067c.004-.437-.127-.818-.36-1.067a1.02 1.02 0 00-.051-.052c.13-.308.34-.626.619-.905.028-.028.06-.057.115-.108a.358.358 0 00-.266-.614 2.938 2.938 0 01-1.205-.188 2.1 2.1 0 01-.342-.17c-.303-.189-.493-.433-.493-.693a.59.59 0 01.07-.27.95.95 0 01.223-.275c.341-.3.944-.51 1.6-.51.044 0 .091.002.158.005a.355.355 0 00.332-.228.372.372 0 00-.097-.405c-.033-.03-.066-.06-.095-.09-.042-.042-.077-.087-.115-.13a3.05 3.05 0 01-.44-.64c-.258-.52-.299-1.03-.05-1.298zm10.035 3.847c.022-.001.045-.007.067-.007a.902.902 0 01.77 1.382.9.9 0 01-.562.406.899.899 0 01-1.043-.53c.472-.317.766-.755.768-1.25zm-3.938 5.345a1.314 1.314 0 00-.343.316.909.909 0 00-.251-.167.923.923 0 00-.399-.073c.179-.256.32-.566.41-.918.113.075.239.136.378.178.003.218.072.446.205.664zm-4.165-1.055c.073-.046.146-.089.218-.142.076.5.25.934.487 1.275-.052.01-.104.017-.153.036a.93.93 0 00-.346.257 1.381 1.381 0 00-.35-.346c.23-.36.29-.752.144-1.08zm-6.3-1.217a.352.352 0 00-.227-.08.376.376 0 00-.187.05c-.038.022-.076.044-.112.063-.442.23-.929.344-1.332.312-.202-.016-.564-.085-.708-.362-.145-.278.006-.614.108-.789.205-.35.577-.682 1.02-.913.038-.02.08-.04.133-.065a.352.352 0 00.197-.353.363.363 0 00-.267-.313c-.045-.012-.09-.024-.132-.037-.476-.15-.9-.413-1.162-.721-.132-.155-.34-.459-.245-.757.14-.446.997-.722 2-.407.04.013.082.028.141.05a.356.356 0 00.425-.513c-.024-.043-.05-.087-.07-.128-.487-.933-.364-1.824.05-2.04.414-.215 1.215.193 1.701 1.127.021.04.042.086.065.134a.35.35 0 00.355.193.367.367 0 00.313-.27c.012-.043.023-.085.036-.125.15-.475.412-.9.72-1.162.155-.132.46-.339.758-.245a.505.505 0 01.162.09c-.393.563-.31 1.415.182 2.214a.357.357 0 00.122.227c.012.01.026.014.038.022-.716.109-1.31.413-1.663.829a1.589 1.589 0 00-.606-.037 1.61 1.61 0 00-1.384 1.805 1.611 1.611 0 002.871.769c.028-.037.048-.078.073-.116.219.084.455.152.71.19a3.36 3.36 0 00-.407.719c-.404.03-.798.323-1.058.788a1.891 1.891 0 00-.462-.35c-.367-.194-.747-.206-1.043-.034-.447.26-.594.86-.415 1.497a1.855 1.855 0 00-.765.163 2.762 2.762 0 01.13-.897l.05-.142a.35.35 0 00-.116-.386zm2.754-1.885l-.014.021a.902.902 0 01-1.607-.43.902.902 0 01.893-1.018c.026 0 .05.005.075.007-.014.075-.028.15-.028.227 0 .466.26.88.68 1.193zm-.535 7.863c-.066-.017-.125-.078-.172-.17a.742.742 0 01-.047-.116 1.13 1.13 0 01-.042-.264c-.01-.16.006-.333.052-.506l.024-.08.28-.916-.882.556a1.484 1.484 0 01-.739.211c-.165-.006-.287-.055-.333-.136-.097-.167.087-.598.598-.894l.917-.495-.515-.114-.499-.11c-.046-.013-.09-.03-.135-.046a1.369 1.369 0 01-.537-.328c-.113-.121-.164-.242-.14-.332a.204.204 0 01.048-.08c.134-.15.52-.259 1.007-.13l.29.086.374.112.33.098-.187-.295-.213-.337-.153-.241c-.295-.51-.242-.976-.074-1.073.08-.046.21-.03.357.048.134.07.265.187.38.328.056.069.11.142.156.221.014.024.027.05.04.076l.41.776.042.08.005-.024.1-.445.124-.559c.088-.334.252-.569.41-.699.11-.091.219-.133.295-.112a.188.188 0 01.067.035c.134.105.24.41.185.808-.01.068-.023.138-.042.211l-.063.205-.235.775-.006.023.023-.015.773-.492.085-.054a1.673 1.673 0 01.558-.2.83.83 0 01.357.02c.075.023.131.06.158.105.006.011.008.026.012.04.04.137-.05.383-.29.615-.015.014-.033.027-.049.041a1.62 1.62 0 01-.271.198l-.284.151-.64.342.228.05.155.035.353.079.284.063c.024.006.045.015.069.023.522.162.79.504.743.683a.187.187 0 01-.028.053c-.12-.004-.24 0-.352.017a1.33 1.33 0 00-.485.178.978.978 0 01-.074-.016c-.04-.007-.077-.013-.117-.023l-.24-.071-.212-.063-.54-.16.228.36.324.512c.082.141.135.279.168.407.003.023.011.047.016.07.06.299.002.53-.11.595-.165.098-.597-.088-.893-.598l-.493-.924-.061.274-.12.541-.046.206c-.03.11-.068.205-.11.294-.178.372-.445.56-.596.517zm3.43 3.857h-.002c-.274 0-.584-.484-.59-1.135l.003-.1a.35.35 0 00-.229-.332.337.337 0 00-.126-.024.376.376 0 00-.276.123l-.054.058c-.23.234-.51.403-.765.464-.199.047-.362.025-.448-.06-.196-.193-.074-.756.384-1.22.019-.02.04-.04.072-.07a.35.35 0 00.074-.395.362.362 0 00-.353-.216l-.081.003c-.33-.001-.645-.075-.87-.213-.016-.01-.029-.022-.044-.032.4-.035.787-.329 1.045-.788.464.472 1.058.643 1.505.383a.903.903 0 00.327-.337c.027.022.05.047.079.068-.569.407-.843 1-.641 1.503.201.502.81.741 1.5.643a1.98 1.98 0 00-.007.628c.01.067.031.127.05.189-.069.504-.32.858-.553.86zm1.778 3.304v-1.725h1.785v1.725h-1.785zm.337-2.434l.062-1.13c.047.001.094.002.14-.002v1.132h-.202zm.91 0v-1.094c.046.005.093.005.141.005l.06 1.09h-.201zm1.466-3.318l-.758-.357-.198-.093.22.483.178.397.036.08a1.7 1.7 0 01.121.56c.004.088.002.174-.012.252-.032.178-.107.302-.204.341-.009.004-.02.003-.03.005-.095.022-.22-.015-.352-.111l-.009-.008c-.025-.018-.049-.042-.073-.064a1.486 1.486 0 01-.385-.558l-.015-.032-.031-.085-.044-.122-.145-.402-.12-.333-.015-.044-.112.29-.155.406-.072.186-.036.096c-.01.023-.023.045-.034.068a1.62 1.62 0 01-.339.479c-.014.014-.03.025-.045.037-.026.023-.052.048-.079.067a.577.577 0 01-.266.109l-.02.002a.232.232 0 01-.099-.015c-.054-.022-.099-.074-.134-.145a.684.684 0 01-.061-.2 1.163 1.163 0 010-.323 1.7 1.7 0 01.127-.485l.263-.55.194-.407-.176.08-.791.354c-.54.217-1.063.128-1.152-.094-.09-.222.227-.648.766-.864l.996-.358-.908-.342-.078-.031c-.277-.118-.514-.299-.65-.497a.7.7 0 01-.09-.176l-.02-.091a.243.243 0 01.01-.11c.001-.002 0-.005.002-.007.041-.097.167-.168.345-.196.133-.02.284-.012.44.017.122.023.248.059.37.111l.957.455-.4-.883-.036-.083c-.01-.026-.017-.053-.026-.08a1.735 1.735 0 01-.089-.38 1.249 1.249 0 01.006-.351.874.874 0 01.022-.085c.039-.131.102-.224.182-.256.077-.032.183-.01.298.053a.811.811 0 01.084.053c.087.063.169.149.244.246.084.108.157.234.216.37l.022.045.246.686.111.309.107-.282.236-.626.03-.078.014-.028c.06-.131.13-.248.206-.347.1-.13.209-.23.314-.295.133-.085.259-.116.348-.078.087.038.15.145.183.293.027.126.031.283.004.454-.02.12-.055.248-.108.376l-.01.03-.439.949.948-.425a1.73 1.73 0 01.43-.111c.313-.04.572.022.68.143.016.018.03.036.039.056 0 .003.003.004.004.006.032.08.01.188-.056.303-.116.2-.368.423-.71.56l-.996.359.907.342.078.031c.536.229.842.662.749.881-.095.22-.62.297-1.155.068zm3.254-.496l-.105-.002h-.009a.352.352 0 00-.324.227.364.364 0 00.096.4l.063.057c.465.457.597 1.018.404 1.214-.085.087-.249.112-.447.068-.257-.057-.539-.221-.774-.453-.018-.017-.035-.036-.069-.071a.35.35 0 00-.395-.074.368.368 0 00-.215.353l.002.081c.006.652-.297 1.141-.572 1.144h-.002c-.274 0-.584-.484-.59-1.135l.003-.098c0-.022-.005-.042-.009-.063a2.137 2.137 0 00-.02-.332c.687.114 1.302-.112 1.515-.61.213-.497-.048-1.096-.606-1.516.038-.027.072-.057.107-.086a.895.895 0 00.298.286c.447.26 1.042.089 1.505-.383.244.434.603.722.978.782a1.682 1.682 0 01-.834.211zm3.101-4.378a.592.592 0 01-.045.057 1.16 1.16 0 01-.256.198 1.645 1.645 0 01-.417.175l-1.001.239.906.481c.51.296.694.727.597.894-.046.081-.168.13-.333.136-.22.008-.494-.069-.739-.21l-.88-.536.302.977c.041.154.058.308.055.454a1.19 1.19 0 01-.045.314c-.009.028-.02.051-.03.076-.048.114-.114.19-.189.21a.228.228 0 01-.14-.017 1.09 1.09 0 00-.131-.074 1.21 1.21 0 01-.347-.475 1.68 1.68 0 01-.088-.246l-.06-.26-.13-.552-.047-.205-.483.921c-.295.51-.726.696-.893.598-.08-.046-.132-.176-.135-.353.054-.14.08-.281.075-.42.033-.098.075-.198.135-.3.013-.024.029-.048.044-.072l.335-.53.18-.286-.633.197-.166.051-.202.063c-.053.014-.104.023-.154.032-.036.006-.071.01-.105.014a1.61 1.61 0 00-.718-.148.235.235 0 01-.078-.107c-.046-.174.208-.504.704-.67.035-.012.069-.025.106-.035l.242-.056.353-.08.275-.064.15-.034-.232-.122-.506-.268-.184-.097a1.667 1.667 0 01-.287-.211c-.186-.17-.292-.35-.323-.492a.375.375 0 01-.01-.101.204.204 0 01.022-.09c.085-.146.456-.205.89-.017.053.023.106.05.16.08l.024.013.035.022.3.19.388.247.171.109-.206-.652-.087-.277-.002-.005a1.565 1.565 0 01-.074-.616 1.14 1.14 0 01.027-.17l.004-.018c.049-.183.138-.303.23-.327a.236.236 0 01.132.015c.194.07.453.342.574.797l.019.082.215.928.486-.914c.296-.51.727-.695.894-.598.11.064.168.288.112.58a1.516 1.516 0 01-.122.363c-.018.038-.036.076-.057.114l-.01.017-.553.884.282-.087.449-.139.036-.01.229-.072a1.75 1.75 0 01.166-.033c.218-.036.43-.03.602.024l.011.004a.53.53 0 01.216.123c.028.029.05.059.06.092.02.076-.016.174-.095.275zm3.071-3.637c-.064.31-.395.475-.586.547-.382.142-.884.166-1.374.065-.04-.008-.083-.02-.146-.035a.353.353 0 00-.378.148.358.358 0 00.008.408c.029.04.058.08.083.117.582.885.55 1.789.157 2.047-.013.009-.026.014-.04.02-.004-.045-.003-.092-.015-.137-.088-.331-.366-.592-.762-.714a1.857 1.857 0 00-.574-.08c.18-.637.032-1.238-.415-1.497-.446-.258-1.041-.088-1.505.383-.295-.526-.76-.836-1.22-.785a3.364 3.364 0 00-.407-.72 3.41 3.41 0 00.604-.154 1.6 1.6 0 00.625.712 1.604 1.604 0 001.22.197c.42-.1.775-.357 1.002-.724.226-.367.296-.8.197-1.22a1.603 1.603 0 00-1.84-1.213c-.314-.522-.977-.913-1.809-1.04.317-.43.506-.887.57-1.316.17.156.328.342.464.547l.079.129c.076.127.227.19.37.162a.358.358 0 00.284-.295c.008-.048.016-.097.025-.141.213-1.037.871-1.653 1.336-1.558.309.063.475.394.546.585.142.383.166.883.065 1.375l-.034.144c-.037.144.03.29.153.373a.369.369 0 00.415-.011c.035-.026.07-.05.105-.074.419-.275.892-.439 1.3-.448.209-.001.574.028.747.291.173.264.056.615-.028.801-.17.37-.507.742-.926 1.017-.032.022-.068.043-.129.08a.351.351 0 00-.156.372c.028.146.153.26.3.284.044.007.09.014.13.022.491.102.942.321 1.237.603.148.142.386.425.322.733zm-12.843-1.248c.176.379.483.666.865.828.027.011.05.027.078.037a1.669 1.669 0 001.279-.055 1.71 1.71 0 00.415-.285 1.638 1.638 0 00.412-.58c.011-.027.027-.051.037-.078.142-.39.13-.807-.023-1.19-.012-.029-.018-.06-.032-.09a1.681 1.681 0 00-.132-.222 1.647 1.647 0 00-2.241-.497 1.66 1.66 0 00-.425.362c-.12.144-.221.306-.289.492-.005.014-.006.028-.01.043a1.64 1.64 0 00-.089.61c.007.133.034.263.072.391.024.08.047.158.083.234zm.61-1.036a.965.965 0 011.235-.575.964.964 0 01.576 1.235c-.008.022-.021.041-.03.063a.949.949 0 01-.227.314.96.96 0 01-.242.166.96.96 0 01-1.28-.466.957.957 0 01-.032-.737z" fill="#fff"/><defs><filter id="filter0_d" x="0" y="0" width="62.52" height="70.121" filterUnits="userSpaceOnUse" color-interpolation-filters="sRGB"><feFlood flood-opacity="0" result="BackgroundImageFix"/><feColorMatrix in="SourceAlpha" values="0 0 0 0 0 0 0 0 0 0 0 0 0 0 0 0 0 0 127 0"/><feOffset dy="3"/><feGaussianBlur stdDeviation="5"/><feColorMatrix values="0 0 0 0 0 0 0 0 0 0 0 0 0 0 0 0 0 0 0.15 0"/><feBlend in2="BackgroundImageFix" result="effect1_dropShadow"/><feBlend in="SourceGraphic" in2="effect1_dropShadow" result="shape"/></filter></defs></svg>