<svg width="21" height="21" fill="none" xmlns="http://www.w3.org/2000/svg"><g clip-path="url(#clip0)"><path d="M5.907 21c.678 0 1.35-.12 2.008-.359a21.405 21.405 0 007.772-4.954 21.404 21.404 0 004.954-7.772 5.81 5.81 0 00.297-2.855A5.946 5.946 0 0017.877.7a5.848 5.848 0 00-2.8-.7.656.656 0 00-.642.519l-1.03 4.806a.656.656 0 00.178.602l1.76 1.76a17.273 17.273 0 01-7.656 7.655l-1.76-1.76a.656.656 0 00-.601-.177l-4.807 1.03a.656.656 0 00-.519.642c0 .994.235 1.936.7 2.8a5.945 5.945 0 004.36 3.061c.283.041.566.062.847.062zm9.694-19.659a4.546 4.546 0 013.25 1.937 4.521 4.521 0 01.557 4.189 19.904 19.904 0 01-11.941 11.94 4.521 4.521 0 01-4.19-.556 4.546 4.546 0 01-1.936-3.25l3.91-.838 1.839 1.838a.656.656 0 00.743.13 18.582 18.582 0 008.898-8.898.656.656 0 00-.13-.743l-1.838-1.84.838-3.91z" fill="#C79B6B"/></g><defs><clipPath id="clip0"><path fill="#fff" transform="matrix(-1 0 0 1 21 0)" d="M0 0h21v21H0z"/></clipPath></defs></svg>