<svg width="20" height="20" fill="none" xmlns="http://www.w3.org/2000/svg"><path d="M6 8.185c0-.504.088-.981.262-1.426a3.65 3.65 0 01.727-1.168 4.936 4.936 0 012.364-1.409A5.556 5.556 0 0110.769 4c.739 0 1.426.156 2.063.467a3.904 3.904 0 011.55 1.358c.398.593.596 1.264.596 2.012 0 .45-.044.888-.134 1.317-.089.43-.23.846-.419 1.24-.18.383-.417.736-.701 1.049a3.062 3.062 0 01-1.017.722c-.418.183-.87.275-1.326.27-.317 0-.633-.074-.946-.224-.312-.149-.537-.354-.671-.617-.048.183-.113.446-.199.79-.083.344-.139.566-.163.666-.026.1-.074.266-.144.497a3.36 3.36 0 01-.182.499l-.223.437a5.17 5.17 0 01-.323.543c-.118.17-.263.373-.436.606l-.096.035-.065-.07c-.069-.735-.105-1.175-.105-1.32 0-.43.052-.912.153-1.447.099-.535.256-1.208.466-2.016a76.56 76.56 0 00.364-1.424c-.148-.303-.223-.698-.223-1.184 0-.389.12-.752.364-1.095.244-.34.552-.511.925-.511.286 0 .508.094.666.284.16.19.238.428.238.72 0 .308-.103.755-.309 1.339-.206.585-.308 1.021-.308 1.31 0 .294.105.54.315.733.207.192.481.297.764.29a1.5 1.5 0 00.716-.175c.217-.114.406-.276.55-.475a3.97 3.97 0 00.66-1.443c.062-.273.11-.533.14-.778a5.55 5.55 0 00.045-.698c0-.808-.257-1.438-.767-1.89-.513-.451-1.18-.675-2.002-.675-.934 0-1.715.302-2.341.908-.626.604-.941 1.373-.941 2.304 0 .206.03.404.09.596.057.191.12.344.188.456.068.111.131.22.189.32.058.1.089.17.089.213 0 .131-.035.302-.104.512-.072.211-.157.316-.26.316-.009 0-.05-.007-.12-.022a1.433 1.433 0 01-.634-.392 2.056 2.056 0 01-.427-.663 4.53 4.53 0 01-.228-.758A3.167 3.167 0 016 8.185z" fill="currentColor"/><circle cx="10" cy="10" r="9.5" stroke="currentColor"/></svg>