<svg width="20" height="20" fill="none" xmlns="http://www.w3.org/2000/svg"><path d="M15.4 7.47c.08-.271 0-.47-.386-.47h-1.277a.551.551 0 00-.555.36s-.65 1.583-1.569 2.61c-.297.298-.433.393-.594.393-.081 0-.199-.094-.199-.365V7.469c0-.325-.094-.469-.364-.469H8.449c-.202 0-.325.15-.325.293 0 .308.46.379.508 1.245v1.88c0 .411-.074.486-.237.486-.433 0-1.486-1.589-2.11-3.407C6.163 7.143 6.04 7 5.714 7H4.438C4.073 7 4 7.172 4 7.36c0 .339.433 2.016 2.015 4.233 1.055 1.515 2.54 2.336 3.893 2.336.811 0 .912-.183.912-.497v-1.145c0-.364.077-.438.334-.438.188 0 .513.096 1.27.825.866.866 1.009 1.254 1.495 1.254h1.276c.365 0 .547-.182.442-.542-.114-.358-.528-.88-1.076-1.496-.298-.351-.744-.73-.88-.92-.189-.243-.134-.35 0-.567.001 0 1.556-2.19 1.718-2.935z" fill="currentColor"/><circle cx="10" cy="10" r="9.5" stroke="currentColor"/></svg>